<?xml version="1.0" encoding="UTF-8" standalone="no"?>
<!-- Created with Inkscape (http://www.inkscape.org/) -->
<svg
   xmlns:svg="http://www.w3.org/2000/svg"
   xmlns="http://www.w3.org/2000/svg"
   xmlns:xlink="http://www.w3.org/1999/xlink"
   version="1.0"
   width="32"
   height="32"
   id="svg3548">
  <defs
     id="defs3550">
    <radialGradient
       cx="605.71429"
       cy="486.64789"
       r="117.14286"
       fx="605.71429"
       fy="486.64789"
       id="radialGradient3409"
       xlink:href="#linearGradient5060"
       gradientUnits="userSpaceOnUse"
       gradientTransform="matrix(-2.774389,0,0,1.969706,112.7623,-872.8854)" />
    <linearGradient
       id="linearGradient5060">
      <stop
         id="stop5062"
         style="stop-color:#000000;stop-opacity:1"
         offset="0" />
      <stop
         id="stop5064"
         style="stop-color:#000000;stop-opacity:0"
         offset="1" />
    </linearGradient>
    <radialGradient
       cx="605.71429"
       cy="486.64789"
       r="117.14286"
       fx="605.71429"
       fy="486.64789"
       id="radialGradient3407"
       xlink:href="#linearGradient5060"
       gradientUnits="userSpaceOnUse"
       gradientTransform="matrix(2.774389,0,0,1.969706,-1891.633,-872.8854)" />
    <linearGradient
       id="linearGradient5048">
      <stop
         id="stop5050"
         style="stop-color:#000000;stop-opacity:0"
         offset="0" />
      <stop
         id="stop5056"
         style="stop-color:#000000;stop-opacity:1"
         offset="0.5" />
      <stop
         id="stop5052"
         style="stop-color:#000000;stop-opacity:0"
         offset="1" />
    </linearGradient>
    <linearGradient
       x1="302.85715"
       y1="366.64789"
       x2="302.85715"
       y2="609.50507"
       id="linearGradient3405"
       xlink:href="#linearGradient5048"
       gradientUnits="userSpaceOnUse"
       gradientTransform="matrix(2.774389,0,0,1.969706,-1892.179,-872.8854)" />
    <linearGradient
       id="linearGradient3332-412-419-652-471-84-177-907-6-893-113-271-332-430">
      <stop
         id="stop6305"
         style="stop-color:#09387d;stop-opacity:1"
         offset="0" />
      <stop
         id="stop6307"
         style="stop-color:#5a82b7;stop-opacity:1"
         offset="1" />
    </linearGradient>
    <linearGradient
       x1="10.014208"
       y1="44.960102"
       x2="10.014208"
       y2="2.8764627"
       id="linearGradient2725"
       xlink:href="#linearGradient3332-412-419-652-471-84-177-907-6-893-113-271-332-430"
       gradientUnits="userSpaceOnUse"
       gradientTransform="matrix(0.6596091,0,0,0.6104883,0.1693952,2.3407973)" />
    <linearGradient
       id="linearGradient3242-593-605-251-305-611-783-329-246-200-38-179-24-325">
      <stop
         id="stop6295"
         style="stop-color:#9ba7db;stop-opacity:1"
         offset="0" />
      <stop
         id="stop6297"
         style="stop-color:#6f99cd;stop-opacity:1"
         offset="0.26238" />
      <stop
         id="stop6299"
         style="stop-color:#4683b0;stop-opacity:1"
         offset="0.66093999" />
      <stop
         id="stop6301"
         style="stop-color:#2c7387;stop-opacity:1"
         offset="1" />
    </linearGradient>
    <radialGradient
       cx="1.080768"
       cy="10.165854"
       r="23"
       fx="1.080768"
       fy="10.165854"
       id="radialGradient2723"
       xlink:href="#linearGradient3242-593-605-251-305-611-783-329-246-200-38-179-24-325"
       gradientUnits="userSpaceOnUse"
       gradientTransform="matrix(6.2025391e-8,0.9303321,-1.5406581,4.2027841e-8,31.662102,6.8707326)" />
    <linearGradient
       id="linearGradient2238">
      <stop
         id="stop2240"
         style="stop-color:#ffffff;stop-opacity:1"
         offset="0" />
      <stop
         id="stop2242"
         style="stop-color:#ffffff;stop-opacity:0"
         offset="1" />
    </linearGradient>
    <linearGradient
       x1="12.578789"
       y1="-7.8073711"
       x2="12.578789"
       y2="41.827358"
       id="linearGradient2694"
       xlink:href="#linearGradient2238"
       gradientUnits="userSpaceOnUse"
       gradientTransform="matrix(0.6438835,0,0,0.5892091,0.5460128,3.4517154)" />
    <linearGradient
       id="linearGradient8265-821-176-38-919-66-249">
      <stop
         id="stop2687"
         style="stop-color:#ffffff;stop-opacity:1"
         offset="0" />
      <stop
         id="stop2689"
         style="stop-color:#ffffff;stop-opacity:0"
         offset="1" />
    </linearGradient>
    <linearGradient
       x1="16.626165"
       y1="15.298182"
       x2="20.054544"
       y2="24.627615"
       id="linearGradient2687"
       xlink:href="#linearGradient8265-821-176-38-919-66-249"
       gradientUnits="userSpaceOnUse"
       gradientTransform="matrix(0.6530613,0,0,0.6967198,0.3265306,0.8414533)" />
    <linearGradient
       id="linearGradient3202">
      <stop
         id="stop3204"
         style="stop-color:#ffffff;stop-opacity:1"
         offset="0" />
      <stop
         id="stop3206"
         style="stop-color:#ced3d6;stop-opacity:1"
         offset="1" />
    </linearGradient>
    <linearGradient
       x1="116.29638"
       y1="32.374962"
       x2="116.29638"
       y2="226.17993"
       id="linearGradient3351"
       xlink:href="#linearGradient3202"
       gradientUnits="userSpaceOnUse"
       gradientTransform="matrix(8.9484792e-2,0,0,9.2888265e-2,4.6438114,4.9927432)" />
  </defs>
  <g
     id="layer1">
    <g
       transform="matrix(1.5760178e-2,0,0,1.2542929e-2,30.017663,26.89018)"
       id="g2583">
      <rect
         width="1339.6335"
         height="478.35718"
         x="-1559.2523"
         y="-150.69685"
         id="rect2585"
         style="opacity:0.40206185;fill:url(#linearGradient3405);fill-opacity:1;fill-rule:nonzero;stroke:none;stroke-width:1;stroke-linecap:round;stroke-linejoin:miter;marker:none;marker-start:none;marker-mid:none;marker-end:none;stroke-miterlimit:4;stroke-dasharray:none;stroke-dashoffset:0;stroke-opacity:1;visibility:visible;display:inline;overflow:visible" />
      <path
         d="M -219.61876,-150.68038 C -219.61876,-150.68038 -219.61876,327.65041 -219.61876,327.65041 C -76.744594,328.55086 125.78146,220.48075 125.78138,88.454235 C 125.78138,-43.572302 -33.655436,-150.68036 -219.61876,-150.68038 z"
         id="path2587"
         style="opacity:0.40206185;fill:url(#radialGradient3407);fill-opacity:1;fill-rule:nonzero;stroke:none;stroke-width:1;stroke-linecap:round;stroke-linejoin:miter;marker:none;marker-start:none;marker-mid:none;marker-end:none;stroke-miterlimit:4;stroke-dasharray:none;stroke-dashoffset:0;stroke-opacity:1;visibility:visible;display:inline;overflow:visible" />
      <path
         d="M -1559.2523,-150.68038 C -1559.2523,-150.68038 -1559.2523,327.65041 -1559.2523,327.65041 C -1702.1265,328.55086 -1904.6525,220.48075 -1904.6525,88.454235 C -1904.6525,-43.572302 -1745.2157,-150.68036 -1559.2523,-150.68038 z"
         id="path2589"
         style="opacity:0.40206185;fill:url(#radialGradient3409);fill-opacity:1;fill-rule:nonzero;stroke:none;stroke-width:1;stroke-linecap:round;stroke-linejoin:miter;marker:none;marker-start:none;marker-mid:none;marker-end:none;stroke-miterlimit:4;stroke-dasharray:none;stroke-dashoffset:0;stroke-opacity:1;visibility:visible;display:inline;overflow:visible" />
    </g>
    <rect
       width="30.999998"
       height="25"
       rx="1.8366539"
       ry="1.8014445"
       x="0.49999997"
       y="4.5"
       id="rect2591"
       style="fill:url(#radialGradient2723);fill-opacity:1;fill-rule:evenodd;stroke:url(#linearGradient2725);stroke-width:1;stroke-linecap:round;stroke-linejoin:round;stroke-miterlimit:4;stroke-dasharray:none;stroke-dashoffset:0;stroke-opacity:1" />
    <g
       transform="matrix(0.681814,0,0,0.6666667,-0.363628,0.3333333)"
       id="g2593"
       style="stroke-width:1.4987911;stroke-miterlimit:4;stroke-dasharray:none">
      <path
         d="M 5.71875,7 L 23.59375,24.96875 L 10.5625,7 L 5.71875,7 z"
         id="path2595"
         style="opacity:0.07086612;fill:#eeeeec;fill-rule:evenodd;stroke:none;stroke-width:1.4987911;stroke-linecap:butt;stroke-linejoin:miter;stroke-miterlimit:4;stroke-dasharray:none;stroke-opacity:1;display:inline" />
      <path
         d="M 45.15625,7.46875 L 25.0625,24.8125 L 46,11.78125 L 46,9.15625 C 46,8.4558663 45.668987,7.8640444 45.15625,7.46875 z"
         id="path2597"
         style="opacity:0.07086612;fill:#eeeeec;fill-rule:evenodd;stroke:none;stroke-width:1.4987911;stroke-linecap:butt;stroke-linejoin:miter;stroke-miterlimit:4;stroke-dasharray:none;stroke-opacity:1;display:inline" />
      <path
         d="M 24.90625,25.375 L 46,35.6875 L 46,26.96875 L 24.90625,25.375 z"
         id="path2599"
         style="opacity:0.07086612;fill:#eeeeec;fill-rule:evenodd;stroke:none;stroke-width:1.4987911;stroke-linecap:butt;stroke-linejoin:miter;stroke-miterlimit:4;stroke-dasharray:none;stroke-opacity:1;display:inline" />
      <path
         d="M 24.5625,25.6875 L 30.03125,43 L 39.78125,43 L 24.5625,25.6875 z"
         id="path2601"
         style="opacity:0.07086612;fill:#eeeeec;fill-rule:evenodd;stroke:none;stroke-width:1.4987911;stroke-linecap:butt;stroke-linejoin:miter;stroke-miterlimit:4;stroke-dasharray:none;stroke-opacity:1;display:inline" />
      <path
         d="M 23.875,25.8125 C 23.463627,25.665381 9.9514594,37.061203 3.21875,42.78125 C 3.5037244,42.918789 3.8174992,43 4.15625,43 L 10.0625,43 L 23.875,25.8125 z"
         id="path2603"
         style="opacity:0.07086612;fill:#eeeeec;fill-rule:evenodd;stroke:none;stroke-width:1.4987911;stroke-linecap:butt;stroke-linejoin:miter;stroke-miterlimit:4;stroke-dasharray:none;stroke-opacity:1;display:inline" />
      <path
         d="M 2,22.65625 L 2,31.625 L 23,25.71875 L 2,22.65625 z"
         id="path2605"
         style="opacity:0.02078738;fill:#000000;fill-opacity:1;fill-rule:evenodd;stroke:none;stroke-width:1.4987911;stroke-linecap:butt;stroke-linejoin:miter;marker:none;marker-start:none;marker-mid:none;marker-end:none;stroke-miterlimit:4;stroke-dasharray:none;stroke-dashoffset:0;stroke-opacity:1;visibility:visible;display:inline;overflow:visible;enable-background:accumulate" />
      <path
         d="M 2.03125,8.78125 C 2.009942,8.9036079 2,9.0276113 2,9.15625 L 2,17.0625 L 24.03125,25.21875 L 2.03125,8.78125 z"
         id="path2607"
         style="opacity:0.07086612;fill:#eeeeec;fill-rule:evenodd;stroke:none;stroke-width:1.4987911;stroke-linecap:butt;stroke-linejoin:miter;stroke-miterlimit:4;stroke-dasharray:none;stroke-opacity:1;display:inline" />
      <path
         d="M 21.9375,7 L 24.65625,24.5625 L 35.8125,7 L 21.9375,7 z"
         id="path2609"
         style="opacity:0.07086612;fill:#eeeeec;fill-rule:evenodd;stroke:none;stroke-width:1.4987911;stroke-linecap:butt;stroke-linejoin:miter;stroke-miterlimit:4;stroke-dasharray:none;stroke-opacity:1;display:inline" />
      <path
         d="M 24.28125,25.90625 L 20.78125,43 L 26.6875,43 L 24.28125,25.90625 z"
         id="path2611"
         style="opacity:0.07086612;fill:#eeeeec;fill-rule:evenodd;stroke:none;stroke-width:1.4987911;stroke-linecap:butt;stroke-linejoin:miter;stroke-miterlimit:4;stroke-dasharray:none;stroke-opacity:1;display:inline" />
      <path
         d="M 10.65625,7 L 23.96875,24.78125 L 18.625,7 L 10.65625,7 z"
         id="path2613"
         style="opacity:0.02078738;fill:#000000;fill-opacity:1;fill-rule:evenodd;stroke:none;stroke-width:1.4987911;stroke-linecap:butt;stroke-linejoin:miter;stroke-miterlimit:4;stroke-dasharray:none;stroke-opacity:1;display:inline" />
      <path
         d="M 41.1875,7 L 30.1875,19.75 L 44.34375,7.0625 C 44.181596,7.0239823 44.018018,7 43.84375,7 L 41.1875,7 z"
         id="path2615"
         style="opacity:0.02078738;fill:#ffffff;fill-opacity:1;fill-rule:evenodd;stroke:none;stroke-width:1.4987911;stroke-linecap:butt;stroke-linejoin:miter;stroke-miterlimit:4;stroke-dasharray:none;stroke-opacity:1;display:inline" />
      <path
         d="M 46,15.71875 L 24.96875,25.1875 L 46,22.6875 L 46,15.71875 z"
         id="path2617"
         style="opacity:0.02078738;fill:#000000;fill-opacity:1;fill-rule:evenodd;stroke:none;stroke-width:1.4987911;stroke-linecap:butt;stroke-linejoin:miter;marker:none;marker-start:none;marker-mid:none;marker-end:none;stroke-miterlimit:4;stroke-dasharray:none;stroke-dashoffset:0;stroke-opacity:1;visibility:visible;display:inline;overflow:visible;enable-background:accumulate" />
      <path
         d="M 24.96875,25.8125 L 46,40.90625 C 46.000606,40.885089 46,40.865063 46,40.84375 L 46,37.59375 L 24.96875,25.8125 z"
         id="path2619"
         style="opacity:0.02078738;fill:#ffffff;fill-opacity:1;fill-rule:evenodd;stroke:none;stroke-width:1.4987911;stroke-linecap:butt;stroke-linejoin:miter;stroke-miterlimit:4;stroke-dasharray:none;stroke-opacity:1;display:inline" />
      <path
         d="M 24.0625,25.90625 C 23.927882,25.761819 16.769429,37.21187 13.53125,43 L 20.0625,43 L 24.0625,25.90625 z"
         id="path2621"
         style="opacity:0.02078738;fill:#000000;fill-opacity:1;fill-rule:evenodd;stroke:none;stroke-width:1.4987911;stroke-linecap:butt;stroke-linejoin:miter;marker:none;marker-start:none;marker-mid:none;marker-end:none;stroke-miterlimit:4;stroke-dasharray:none;stroke-dashoffset:0;stroke-opacity:1;visibility:visible;display:inline;overflow:visible;enable-background:accumulate" />
      <path
         d="M 23.25,25.875 L 2,33.0625 L 2,40.65625 L 23.25,25.875 z"
         id="path2623"
         style="opacity:0.02078738;fill:#ffffff;fill-opacity:1;fill-rule:evenodd;stroke:none;stroke-width:1.4987911;stroke-linecap:butt;stroke-linejoin:miter;stroke-miterlimit:4;stroke-dasharray:none;stroke-opacity:1;display:inline" />
      <path
         d="M 2,17.53125 L 2,20.71875 L 23.65625,25.53125 L 2,17.53125 z"
         id="path2625"
         style="opacity:0.02078738;fill:#ffffff;fill-opacity:1;fill-rule:evenodd;stroke:none;stroke-width:1.4987911;stroke-linecap:butt;stroke-linejoin:miter;stroke-miterlimit:4;stroke-dasharray:none;stroke-opacity:1;display:inline" />
      <path
         d="M 15.34375,7 L 23.71875,24.40625 L 16.78125,7 L 15.34375,7 z"
         id="path2627"
         style="opacity:0.07086612;fill:#ffffff;fill-opacity:1;fill-rule:evenodd;stroke:none;stroke-width:1.4987911;stroke-linecap:butt;stroke-linejoin:miter;stroke-miterlimit:4;stroke-dasharray:none;stroke-opacity:1;display:inline" />
      <path
         d="M 46,18.1875 L 25.59375,25.15625 L 46,20.21875 L 46,18.1875 z"
         id="path2629"
         style="opacity:0.11083972;fill:#ffffff;fill-opacity:1;fill-rule:evenodd;stroke:none;stroke-width:1.4987911;stroke-linecap:butt;stroke-linejoin:miter;stroke-miterlimit:4;stroke-dasharray:none;stroke-opacity:1;display:inline" />
      <path
         d="M 23.71875,25.46875 L 2,27 L 2,29.6875 L 23.71875,25.46875 z"
         id="path2631"
         style="opacity:0.12824432;fill:#ffffff;fill-opacity:1;fill-rule:evenodd;stroke:none;stroke-width:1.4987911;stroke-linecap:butt;stroke-linejoin:miter;stroke-miterlimit:4;stroke-dasharray:none;stroke-opacity:1;display:inline" />
      <path
         d="M 19.21875,30.5625 L 5.625,43 L 8.09375,43 L 19.21875,30.5625 z"
         id="path2633"
         style="opacity:0.06961831;fill:#ffffff;fill-opacity:1;fill-rule:evenodd;stroke:none;stroke-width:1.4987911;stroke-linecap:butt;stroke-linejoin:miter;stroke-miterlimit:4;stroke-dasharray:none;stroke-opacity:1;display:inline" />
      <path
         d="M 29.84375,29.8125 L 44,43 C 45.125099,42.9194 46,41.990081 46,40.84375 L 46,40.71875 L 29.84375,29.8125 z"
         id="path2635"
         style="opacity:0.09251906;fill:#ffffff;fill-opacity:1;fill-rule:evenodd;stroke:none;stroke-width:1.4987911;stroke-linecap:butt;stroke-linejoin:miter;stroke-miterlimit:4;stroke-dasharray:none;stroke-opacity:1;display:inline" />
      <path
         d="M 27.21875,26.4375 L 46,35 L 46,31.53125 L 27.21875,26.4375 z"
         id="path2637"
         style="opacity:0.07086612;fill:#ffffff;fill-opacity:1;fill-rule:evenodd;stroke:none;stroke-width:1.4987911;stroke-linecap:butt;stroke-linejoin:miter;stroke-miterlimit:4;stroke-dasharray:none;stroke-opacity:1;display:inline" />
      <path
         d="M 2.03125,8.71875 C 2.0024997,8.859964 2,9.0062984 2,9.15625 L 2,10.78125 L 18.6875,21.6875 L 2.03125,8.71875 z"
         id="path2639"
         style="opacity:0.06687024;fill:#ffffff;fill-opacity:1;fill-rule:evenodd;stroke:none;stroke-width:1.4987911;stroke-linecap:butt;stroke-linejoin:miter;stroke-miterlimit:4;stroke-dasharray:none;stroke-opacity:1;display:inline" />
      <path
         d="M 33.4375,7 L 25.15625,23.625 L 35.90625,7 L 33.4375,7 z"
         id="path2641"
         style="opacity:0.07328246;fill:#ffffff;fill-opacity:1;fill-rule:evenodd;stroke:none;stroke-width:1.4987911;stroke-linecap:butt;stroke-linejoin:miter;stroke-miterlimit:4;stroke-dasharray:none;stroke-opacity:1;display:inline" />
      <path
         d="M 24.28125,25.90625 L 25,43 L 26.6875,43 L 24.28125,25.90625 z"
         id="path2643"
         style="opacity:0.10076336;fill:#eeeeec;fill-rule:evenodd;stroke:none;stroke-width:1.4987911;stroke-linecap:butt;stroke-linejoin:miter;stroke-miterlimit:4;stroke-dasharray:none;stroke-opacity:1;display:inline" />
    </g>
    <rect
       width="29"
       height="23"
       rx="1.1438993"
       ry="1.1146195"
       x="1.5"
       y="5.5"
       id="rect2645"
       style="opacity:0.4;fill:none;fill-opacity:1;fill-rule:evenodd;stroke:url(#linearGradient2694);stroke-width:0.99999994;stroke-linecap:round;stroke-linejoin:round;stroke-miterlimit:4;stroke-dasharray:none;stroke-dashoffset:0;stroke-opacity:1" />
    <path
       d="M 2.4285715,4.9999996 C 1.6394926,4.9999996 1,5.6822438 1,6.5240741 L 1,17.671591 C 1.0018102,17.765372 1.0403577,17.854056 1.1062856,17.916117 C 1.1722133,17.978177 1.2594933,18.00794 1.3469387,17.998177 L 30.734693,13.03405 C 30.885863,13.008615 30.997887,12.870714 31,12.707462 L 31,6.5240741 C 31,5.6822438 30.360507,4.9999996 29.571428,4.9999996 L 2.4285715,4.9999996 z"
       id="path2651"
       style="opacity:0.2;fill:url(#linearGradient2687);fill-opacity:1;fill-rule:evenodd;stroke:none;stroke-width:1;stroke-linecap:round;stroke-linejoin:round;stroke-miterlimit:4;stroke-dasharray:none;stroke-dashoffset:0;stroke-opacity:1" />
    <path
       d="M 16,7 C 14.893922,7 13.997443,7.8960167 13.997775,9 C 13.997518,9.857887 14.551373,10.570311 15.311734,10.854167 C 15.312275,11.127058 15.314276,11.737931 15.311734,12 L 12.350113,12 C 12.152751,12 11.995552,12.202857 11.995552,12.4 L 11.995552,12.645833 C 11.995552,12.842977 12.15275,13.000001 12.350113,13.000001 L 15.290878,13.000001 C 15.286671,15.144698 15.311734,17.433615 15.311734,20.416667 C 15.316988,20.908698 15.330968,21.403994 15.311734,21.895833 C 15.316762,21.975437 15.271883,22.057145 15.207453,22.104166 C 15.025062,22.240427 14.805885,22.285317 14.581758,22.291667 C 14.225363,22.289463 14.005061,22.198513 13.664072,22.104166 C 12.894006,21.878987 12.159008,21.564306 11.453284,21.1875 C 11.156151,21.022767 10.862542,20.859572 10.598167,20.645833 C 10.484216,20.548617 10.356634,20.410665 10.368745,20.25 C 10.384138,20.128376 10.443356,20.001417 10.577311,19.979167 C 10.698042,19.960046 10.804256,20.022203 10.911013,20.0625 C 11.003045,20.102189 11.071731,19.993164 11.05701,19.916666 C 11.042197,19.715141 10.973704,19.528607 10.869301,19.354167 C 10.652085,18.996876 10.319417,18.728511 9.9724715,18.5 C 9.6020467,18.263441 9.2060395,18.003349 8.9713607,17.625 C 8.9246775,17.555076 8.867387,17.441989 8.7627956,17.479167 C 8.617395,17.526329 8.5420192,17.668826 8.4708046,17.791667 C 8.2704339,18.172976 8.1648707,18.581703 8.0745305,19 C 8.0002657,19.33282 7.9860207,19.681713 8.0119609,20.020834 C 8.0388168,20.360147 8.0622487,20.703963 8.1996698,21.020833 C 8.2862123,21.229067 8.4442217,21.399553 8.5959428,21.5625 C 8.6927562,21.460139 8.7888905,21.350266 8.8879339,21.25 C 9.0162853,21.12115 9.1797867,21.037492 9.3676338,21.0625 C 9.6233037,21.095408 9.854978,21.247732 10.055897,21.395834 C 10.338907,21.61591 10.601803,21.84882 10.890157,22.0625 C 11.346439,22.4112 11.853962,22.669074 12.370969,22.916666 C 12.801707,23.116697 13.237935,23.31649 13.684928,23.479167 C 13.764976,23.514127 13.853709,23.512538 13.935205,23.541667 C 14.73969,23.876244 15.422289,24.260446 15.979143,24.958333 C 15.979919,24.967912 15.978321,24.990874 15.979143,25 C 15.985532,24.991728 15.993575,24.987351 16,24.979167 C 16.006425,24.987351 16.014468,24.991728 16.020856,25 C 16.025036,24.980726 16.016749,24.956855 16.020856,24.9375 C 16.575965,24.247707 17.265188,23.874214 18.064793,23.541667 C 18.146291,23.512538 18.235021,23.514127 18.31507,23.479167 C 18.762065,23.31649 19.198291,23.116697 19.62903,22.916666 C 20.146038,22.669074 20.65356,22.4112 21.109843,22.0625 C 21.398195,21.84882 21.661092,21.61591 21.944101,21.395834 C 22.145021,21.247732 22.376696,21.095408 22.632367,21.0625 C 22.820213,21.037492 22.983715,21.12115 23.112065,21.25 C 23.211108,21.350266 23.307243,21.460139 23.404057,21.5625 C 23.555777,21.399553 23.713787,21.229067 23.80033,21.020833 C 23.937751,20.703963 23.961184,20.360147 23.988038,20.020834 C 24.01398,19.681713 23.999733,19.33282 23.925469,19 C 23.83513,18.581703 23.729566,18.172976 23.529196,17.791667 C 23.45798,17.668826 23.382604,17.526329 23.237204,17.479167 C 23.132613,17.441989 23.075322,17.555076 23.02864,17.625 C 22.79396,18.003349 22.397952,18.263441 22.027528,18.5 C 21.68058,18.728511 21.347915,18.996876 21.130699,19.354167 C 21.026296,19.528607 20.957803,19.715141 20.942989,19.916666 C 20.928269,19.993164 20.996954,20.102189 21.088985,20.0625 C 21.195743,20.022203 21.301957,19.960046 21.422689,19.979167 C 21.556644,20.001417 21.615862,20.128376 21.631255,20.25 C 21.643365,20.410665 21.515782,20.548617 21.401833,20.645833 C 21.137458,20.859572 20.843847,21.022767 20.546716,21.1875 C 19.840991,21.564306 19.105994,21.878987 18.335927,22.104166 C 17.994939,22.198513 17.774636,22.289463 17.418241,22.291667 C 17.194115,22.285317 16.974936,22.240427 16.792547,22.104166 C 16.728116,22.057145 16.683238,21.975437 16.688263,21.895833 C 16.669031,21.403994 16.683011,20.908698 16.688263,20.416667 C 16.688265,17.433615 16.713328,15.144698 16.709121,13.000001 L 19.649887,13.000001 C 19.847249,13.000001 20.004448,12.842977 20.004448,12.645833 L 20.004448,12.4 C 20.004448,12.202857 19.847249,12 19.649887,12 L 16.688263,12 C 16.685724,11.737931 16.687724,11.127058 16.688263,10.854167 C 17.448625,10.570311 18.002483,9.857887 18.002223,9 C 18.002556,7.8960167 17.106073,7 16,7 z M 15.958287,7.9791666 C 16.495217,7.9791666 16.938705,8.401586 16.938542,8.9375003 C 16.938704,9.473415 16.495217,9.916667 15.958287,9.916667 C 15.421355,9.916667 14.97787,9.473415 14.978032,8.9375003 C 14.97787,8.401586 15.421355,7.9791666 15.958287,7.9791666 z"
       id="path2773"
       style="fill:#1e0090;fill-opacity:0.29803922;fill-rule:nonzero;stroke:none;stroke-width:10;stroke-miterlimit:4;stroke-dasharray:none;stroke-opacity:1" />
    <path
       d="M 16,8 C 14.893922,8 13.999668,8.8960167 14,10 C 13.99978,10.733262 14.407649,11.343559 15,11.6875 L 15,13 L 12.34375,13 C 12.146388,13 12,13.209107 12,13.40625 L 12,13.65625 C 12,13.853394 12.146387,14 12.34375,14 L 15,14 L 15,23.1875 C 14.865541,23.240456 14.741674,23.277059 14.59375,23.28125 C 14.237355,23.279045 13.997239,23.188097 13.65625,23.09375 C 12.886184,22.868571 12.174474,22.564306 11.46875,22.1875 C 11.171617,22.022767 10.858125,21.869989 10.59375,21.65625 C 10.479799,21.559035 10.362889,21.410665 10.375,21.25 C 10.390393,21.128376 10.428545,20.991 10.5625,20.96875 C 10.683231,20.949628 10.799493,21.022203 10.90625,21.0625 C 10.998282,21.102189 11.077221,20.982748 11.0625,20.90625 C 11.047687,20.704725 10.979403,20.51819 10.875,20.34375 C 10.657784,19.986458 10.315696,19.728511 9.96875,19.5 C 9.5983255,19.263441 9.2034288,19.003349 8.96875,18.625 C 8.9220663,18.555076 8.8545914,18.431572 8.75,18.46875 C 8.6045996,18.515911 8.5399646,18.658409 8.46875,18.78125 C 8.2683797,19.162558 8.1528402,19.581703 8.0625,20 C 7.9882351,20.33282 7.9740598,20.692129 8,21.03125 C 8.0268558,21.370563 8.0500789,21.71438 8.1875,22.03125 C 8.2740425,22.239485 8.4420289,22.399553 8.59375,22.5625 C 8.6905637,22.460139 8.7759566,22.350266 8.875,22.25 C 9.0033516,22.12115 9.1871529,22.037492 9.375,22.0625 C 9.6306699,22.095408 9.861581,22.258148 10.0625,22.40625 C 10.34551,22.626326 10.586646,22.84882 10.875,23.0625 C 11.331282,23.4112 11.857993,23.658658 12.375,23.90625 C 12.805738,24.106281 13.240507,24.306073 13.6875,24.46875 C 13.767548,24.503709 13.856004,24.502121 13.9375,24.53125 C 14.741985,24.865826 15.411896,25.270863 15.96875,25.96875 C 15.972363,25.965599 15.996787,25.972842 16,25.96875 C 16.006425,25.976933 16.024862,25.991728 16.03125,26 C 16.035429,25.980726 16.027143,25.956855 16.03125,25.9375 C 16.586358,25.247707 17.262895,24.863797 18.0625,24.53125 C 18.143998,24.50212 18.232451,24.50371 18.3125,24.46875 C 18.759496,24.306072 19.194261,24.106281 19.625,23.90625 C 20.142008,23.658658 20.668717,23.4112 21.125,23.0625 C 21.413353,22.84882 21.654491,22.626326 21.9375,22.40625 C 22.13842,22.258148 22.369329,22.095408 22.625,22.0625 C 22.812847,22.037492 22.99665,22.12115 23.125,22.25 C 23.224044,22.350266 23.309436,22.460139 23.40625,22.5625 C 23.55797,22.399553 23.725957,22.239484 23.8125,22.03125 C 23.949922,21.714381 23.973146,21.370563 24,21.03125 C 24.025943,20.692129 24.011764,20.33282 23.9375,20 C 23.847162,19.581703 23.73162,19.162559 23.53125,18.78125 C 23.460034,18.658408 23.3954,18.515912 23.25,18.46875 C 23.145409,18.431571 23.077932,18.555076 23.03125,18.625 C 22.796569,19.003349 22.401674,19.263441 22.03125,19.5 C 21.684301,19.728511 21.342216,19.986459 21.125,20.34375 C 21.020597,20.518189 20.952314,20.704725 20.9375,20.90625 C 20.92278,20.982748 21.001719,21.102189 21.09375,21.0625 C 21.200508,21.022203 21.316768,20.949629 21.4375,20.96875 C 21.571455,20.990999 21.609607,21.128376 21.625,21.25 C 21.637111,21.410665 21.520199,21.559034 21.40625,21.65625 C 21.141875,21.86999 20.828381,22.022767 20.53125,22.1875 C 19.825524,22.564306 19.113817,22.868571 18.34375,23.09375 C 18.002763,23.188097 17.762645,23.279046 17.40625,23.28125 C 17.258327,23.277058 17.134458,23.240456 17,23.1875 L 17,14 L 19.65625,14 C 19.853612,14 20,13.853394 20,13.65625 L 20,13.40625 C 20,13.209107 19.853612,13 19.65625,13 L 17,13 L 17,11.6875 C 17.592352,11.343559 18.000222,10.733262 18,10 C 18.000334,8.8960167 17.106073,8 16,8 z M 15.96875,8.96875 C 16.50568,8.9687496 16.937663,9.4015857 16.9375,9.9375 C 16.937663,10.473415 16.50568,10.90625 15.96875,10.90625 C 15.431818,10.90625 14.968588,10.473415 14.96875,9.9375 C 14.968588,9.401586 15.431818,8.96875 15.96875,8.96875 z"
       id="path1919"
       style="fill:url(#linearGradient3351);fill-opacity:1;fill-rule:nonzero;stroke:none;stroke-width:10;stroke-miterlimit:4;stroke-dasharray:none;stroke-opacity:1" />
  </g>
</svg>
