<?xml version="1.0" encoding="UTF-8" standalone="no"?>
<!-- Created with Inkscape (http://www.inkscape.org/) -->

<svg
   xmlns:svg="http://www.w3.org/2000/svg"
   xmlns="http://www.w3.org/2000/svg"
   version="1.0"
   width="100"
   height="120"
   id="svg2">
  <defs
     id="defs4" />
  <path
     d="m 6.5000001,0.5 c -3.324,0 -6.00000004,2.6760001 -6.00000004,6 l 0,87 c 0,3.324 2.67600004,6 6.00000004,6 L 40,99.5 l 10,11 10,-11 33.5,0 c 3.324,0 6,-2.676 6,-6 l 0,-87 c 0,-3.324 -2.675996,-6 -6,-6 l -86.9999999,0 z"
     id="path3233"
     style="opacity:0.6;color:#000000;fill:#d3d4d5;fill-opacity:0.8627451;fill-rule:nonzero;stroke:#464646;stroke-width:1.00000012;stroke-linecap:square;stroke-linejoin:miter;stroke-miterlimit:4;stroke-opacity:1;stroke-dasharray:none;stroke-dashoffset:0;marker:none;visibility:visible;display:inline;overflow:visible;enable-background:accumulate" />
  <path
     d="M 6.5,1.375 C 3.6401095,1.375 1.375,3.6401096 1.375,6.5 l 0,87 c 0,2.859891 2.2651094,5.125 5.125,5.125 l 33.5,0 a 0.86482851,0.86482851 0 0 1 0.625,0.28125 L 50,109.21875 59.375,98.90625 A 0.86482851,0.86482851 0 0 1 60,98.625 l 33.5,0 c 2.859891,0 5.125,-2.265109 5.125,-5.125 l 0,-87 c 0,-2.8598912 -2.265105,-5.125 -5.125,-5.125 l -87,0 z"
     id="path2908"
     style="opacity:0.4;color:#000000;fill:none;stroke:#ffffff;stroke-width:1.00000012;stroke-linecap:square;stroke-linejoin:miter;stroke-miterlimit:4;stroke-opacity:1;stroke-dasharray:none;stroke-dashoffset:0;marker:none;visibility:visible;display:inline;overflow:visible;enable-background:accumulate" />
</svg>
