<?xml version="1.0" encoding="UTF-8" standalone="no"?>
<!-- Created with Inkscape (http://www.inkscape.org/) -->
<svg
   xmlns:svg="http://www.w3.org/2000/svg"
   xmlns="http://www.w3.org/2000/svg"
   xmlns:xlink="http://www.w3.org/1999/xlink"
   version="1.0"
   width="16"
   height="16"
   id="svg4375">
  <defs
     id="defs4377">
    <linearGradient
       id="linearGradient2238">
      <stop
         id="stop2240"
         style="stop-color:#ffffff;stop-opacity:1"
         offset="0" />
      <stop
         id="stop2242"
         style="stop-color:#ffffff;stop-opacity:0"
         offset="1" />
    </linearGradient>
    <linearGradient
       id="linearGradient3242-593-605-251-305-611-783-329-246-200-38-179-24-325">
      <stop
         id="stop6295"
         style="stop-color:#9ba7db;stop-opacity:1"
         offset="0" />
      <stop
         id="stop6297"
         style="stop-color:#6f99cd;stop-opacity:1"
         offset="0.26238" />
      <stop
         id="stop6299"
         style="stop-color:#4683b0;stop-opacity:1"
         offset="0.66093999" />
      <stop
         id="stop6301"
         style="stop-color:#2c7387;stop-opacity:1"
         offset="1" />
    </linearGradient>
    <linearGradient
       id="linearGradient3332-412-419-652-471-84-177-907-6-893-113-271-332-430">
      <stop
         id="stop6305"
         style="stop-color:#09387d;stop-opacity:1"
         offset="0" />
      <stop
         id="stop6307"
         style="stop-color:#5a82b7;stop-opacity:1"
         offset="1" />
    </linearGradient>
    <linearGradient
       x1="24.675762"
       y1="4.1577182"
       x2="24.675762"
       y2="46.698467"
       id="linearGradient2635"
       xlink:href="#linearGradient2238"
       gradientUnits="userSpaceOnUse"
       gradientTransform="matrix(0.2885901,0,0,0.281741,1.0734846,1.5216395)" />
    <linearGradient
       x1="22.226261"
       y1="3.8111546"
       x2="22.226261"
       y2="44.286263"
       id="linearGradient2639"
       xlink:href="#linearGradient3242-593-605-251-305-611-783-329-246-200-38-179-24-325"
       gradientUnits="userSpaceOnUse"
       gradientTransform="matrix(0.3191203,0,0,0.3174019,0.3411166,0.3784635)" />
    <linearGradient
       x1="34.580818"
       y1="46.148075"
       x2="34.580818"
       y2="3.0448537"
       id="linearGradient2641"
       xlink:href="#linearGradient3332-412-419-652-471-84-177-907-6-893-113-271-332-430"
       gradientUnits="userSpaceOnUse"
       gradientTransform="matrix(0.3191203,0,0,0.3174019,0.3411166,0.3784635)" />
  </defs>
  <rect
     width="14.997868"
     height="12.997867"
     rx="1.5284374"
     ry="1.5617938"
     x="0.50106621"
     y="1.5010667"
     id="rect1316"
     style="fill:url(#linearGradient2639);fill-opacity:1;fill-rule:evenodd;stroke:url(#linearGradient2641);stroke-width:1.00213301;stroke-linecap:round;stroke-linejoin:round;stroke-miterlimit:4;stroke-dasharray:none;stroke-dashoffset:0;stroke-opacity:1" />
  <rect
     width="12.997868"
     height="10.997867"
     rx="0.53651923"
     ry="0.53651923"
     x="1.5010662"
     y="2.5010667"
     id="rect2232"
     style="opacity:0.4;fill:none;fill-opacity:1;fill-rule:evenodd;stroke:url(#linearGradient2635);stroke-width:1.00213301;stroke-linecap:round;stroke-linejoin:round;stroke-miterlimit:4;stroke-dasharray:none;stroke-dashoffset:0;stroke-opacity:1" />
  <path
     d="M 7.9999997,2.9999994 C 7.3097338,2.9999994 6.7516604,3.4977871 6.7518679,4.1111103 C 6.7517304,4.5184787 6.7970004,4.857532 7.1666663,5.0486104 L 7.1666663,6 L 5.3688812,6 C 5.2457137,6 5.1543587,6.0690484 5.1543587,6.1785717 L 5.1543587,6.8214285 C 5.1543587,6.9309526 5.2457129,7 5.3688812,7 L 7,7 L 7,11.437501 C 7.3444781,11.585091 6.6688057,11.400217 6.5373454,11.385418 C 6.0567729,11.260318 5.6126195,11.091283 5.1722012,10.881944 C 4.9867712,10.790427 4.791132,10.705549 4.6261435,10.586806 C 4.5550315,10.532797 4.4820715,10.45037 4.4896295,10.361113 C 4.4992355,10.293543 4.5230455,10.217223 4.6066415,10.204863 C 4.6819862,10.194238 4.7545412,10.234557 4.8211637,10.256944 C 4.8785987,10.278993 4.927862,10.212638 4.9186745,10.170138 C 4.9094303,10.058182 4.866817,9.9545506 4.8016628,9.8576375 C 4.6661053,9.6591426 4.4526205,9.5158395 4.2361025,9.3888885 C 4.0049325,9.2574655 3.7584925,9.1129718 3.6120375,8.9027768 C 3.5829025,8.8639301 3.5407945,8.7953169 3.4755225,8.8159718 C 3.3847825,8.8421727 3.3444475,8.9213385 3.3000035,8.9895836 C 3.1749605,9.2014206 3.1028555,9.4342786 3.0464775,9.6666666 C 3.0001315,9.8515666 2.9912855,10.051183 3.0074735,10.239584 C 3.0242335,10.428092 3.0387265,10.6191 3.1244865,10.795139 C 3.1784935,10.910826 3.2833285,10.999753 3.3780125,11.090278 C 3.4384315,11.033411 3.4917225,10.972371 3.5535315,10.916668 C 3.6336315,10.845083 3.7483355,10.798607 3.8655635,10.812501 C 4.0251185,10.830783 4.1692225,10.921194 4.2946085,11.003473 C 4.4712265,11.125738 4.6217115,11.249344 4.8016628,11.368056 C 5.0864129,11.561778 5.4151145,11.699254 5.737762,11.836806 C 6.0065704,11.947933 6.2778946,12.05893 6.5568479,12.149307 C 6.6068029,12.168728 6.6620054,12.167846 6.7128638,12.184028 C 7.2149155,12.369904 7.6329838,12.594924 7.980498,12.982638 C 7.982753,12.980889 7.9979947,12.984913 7.9999997,12.982638 C 8.0040088,12.987185 8.0155147,12.995405 8.0195022,13.000001 C 8.0221097,12.989293 8.0169388,12.976031 8.0195022,12.965278 C 8.3659255,12.582059 8.7881297,12.368777 9.2871356,12.184028 C 9.3379956,12.167844 9.3931964,12.168728 9.4431522,12.149307 C 9.7221072,12.058928 9.9934289,11.947933 10.262238,11.836806 C 10.584886,11.699254 10.913586,11.561778 11.198337,11.368056 C 11.378289,11.249344 11.528775,11.125738 11.705391,11.003473 C 11.830778,10.921194 11.974881,10.830783 12.134436,10.812501 C 12.251665,10.798607 12.36637,10.845083 12.446469,10.916668 C 12.508279,10.972371 12.561569,11.033411 12.621987,11.090278 C 12.71667,10.999753 12.821506,10.910825 12.875514,10.795139 C 12.961275,10.619101 12.975767,10.428092 12.992526,10.239584 C 13.008716,10.051183 12.999867,9.8515666 12.953521,9.6666666 C 12.897145,9.4342786 12.82504,9.2014216 12.699995,8.9895836 C 12.655552,8.9213376 12.615216,8.8421727 12.524476,8.8159718 C 12.459205,8.7953169 12.417095,8.8639301 12.387962,8.9027768 C 12.241506,9.1129718 11.995066,9.2574655 11.763896,9.3888885 C 11.547378,9.5158395 11.333895,9.6591426 11.198337,9.8576375 C 11.133183,9.9545495 11.09057,10.058182 11.081325,10.170138 C 11.072139,10.212638 11.121401,10.278993 11.178835,10.256944 C 11.245459,10.234557 11.318013,10.194239 11.393358,10.204863 C 11.476955,10.217223 11.500764,10.293543 11.51037,10.361113 C 11.517928,10.45037 11.444967,10.532797 11.373855,10.586806 C 11.208868,10.70555 11.013228,10.790427 10.827799,10.881944 C 10.387379,11.091283 9.9432264,11.260318 9.4626539,11.385418 C 9.3003849,11.522389 9.066866,11.431967 9,11.437501 L 9,7 L 10.649506,7 C 10.772673,7 10.864029,6.9309526 10.864029,6.8214285 L 10.864029,6.1785717 C 10.864029,6.0690484 10.772673,6 10.649506,6 L 8.833333,6 L 8.833333,5.0486104 C 9.2029997,4.857532 9.2482697,4.5184787 9.2481314,4.1111103 C 9.2483389,3.4977871 8.6902622,2.9999994 7.9999997,2.9999994 z M 7.980498,3.5381937 C 8.315578,3.5381937 8.585163,3.7786579 8.5850622,4.0763887 C 8.585163,4.3741195 8.315578,4.614583 7.980498,4.614583 C 7.6454171,4.614583 7.3563313,4.3741195 7.3564321,4.0763887 C 7.3563313,3.7786586 7.6454171,3.5381937 7.980498,3.5381937 z"
     id="path1919"
     style="fill:#eeeeec;fill-opacity:1;fill-rule:nonzero;stroke:none;stroke-width:10;stroke-miterlimit:4;stroke-dasharray:none;stroke-opacity:1" />
</svg>
