<?xml version="1.0" encoding="UTF-8" standalone="no"?>
<!-- Created with Inkscape (http://www.inkscape.org/) -->
<svg
   xmlns:svg="http://www.w3.org/2000/svg"
   xmlns="http://www.w3.org/2000/svg"
   xmlns:xlink="http://www.w3.org/1999/xlink"
   version="1.0"
   width="64"
   height="64"
   id="svg5186">
  <defs
     id="defs5188">
    <linearGradient
       id="linearGradient5060">
      <stop
         id="stop5062"
         style="stop-color:#000000;stop-opacity:1"
         offset="0" />
      <stop
         id="stop5064"
         style="stop-color:#000000;stop-opacity:0"
         offset="1" />
    </linearGradient>
    <linearGradient
       id="linearGradient5048">
      <stop
         id="stop5050"
         style="stop-color:#000000;stop-opacity:0"
         offset="0" />
      <stop
         id="stop5056"
         style="stop-color:#000000;stop-opacity:1"
         offset="0.5" />
      <stop
         id="stop5052"
         style="stop-color:#000000;stop-opacity:0"
         offset="1" />
    </linearGradient>
    <linearGradient
       id="linearGradient3332-412-419-652-471">
      <stop
         id="stop2759"
         style="stop-color:#0d5765;stop-opacity:1"
         offset="0" />
      <stop
         id="stop2761"
         style="stop-color:#539fad;stop-opacity:1"
         offset="1" />
    </linearGradient>
    <linearGradient
       id="linearGradient3242-593-605-251-305">
      <stop
         id="stop2749"
         style="stop-color:#8ec2d7;stop-opacity:1"
         offset="0" />
      <stop
         id="stop2751"
         style="stop-color:#64b2c5;stop-opacity:1"
         offset="0.26238" />
      <stop
         id="stop2753"
         style="stop-color:#3e94a4;stop-opacity:1"
         offset="0.66093999" />
      <stop
         id="stop2755"
         style="stop-color:#29696c;stop-opacity:1"
         offset="1" />
    </linearGradient>
    <linearGradient
       id="linearGradient2238">
      <stop
         id="stop2240"
         style="stop-color:#ffffff;stop-opacity:1"
         offset="0" />
      <stop
         id="stop2242"
         style="stop-color:#ffffff;stop-opacity:0"
         offset="1" />
    </linearGradient>
    <linearGradient
       id="linearGradient8265-821-176-38-919-66-249">
      <stop
         id="stop2687"
         style="stop-color:#ffffff;stop-opacity:1"
         offset="0" />
      <stop
         id="stop2689"
         style="stop-color:#ffffff;stop-opacity:0"
         offset="1" />
    </linearGradient>
    <linearGradient
       x1="302.85715"
       y1="366.64789"
       x2="302.85715"
       y2="609.50507"
       id="linearGradient2488"
       xlink:href="#linearGradient5048"
       gradientUnits="userSpaceOnUse"
       gradientTransform="matrix(2.774389,0,0,1.969706,-1892.179,-872.8854)" />
    <radialGradient
       cx="605.71429"
       cy="486.64789"
       r="117.14286"
       fx="605.71429"
       fy="486.64789"
       id="radialGradient2490"
       xlink:href="#linearGradient5060"
       gradientUnits="userSpaceOnUse"
       gradientTransform="matrix(2.774389,0,0,1.969706,-1891.633,-872.8854)" />
    <radialGradient
       cx="605.71429"
       cy="486.64789"
       r="117.14286"
       fx="605.71429"
       fy="486.64789"
       id="radialGradient2492"
       xlink:href="#linearGradient5060"
       gradientUnits="userSpaceOnUse"
       gradientTransform="matrix(-2.774389,0,0,1.969706,112.7623,-872.8854)" />
    <linearGradient
       x1="16.626165"
       y1="15.298182"
       x2="20.054544"
       y2="24.627615"
       id="linearGradient2509"
       xlink:href="#linearGradient8265-821-176-38-919-66-249"
       gradientUnits="userSpaceOnUse"
       gradientTransform="matrix(1.3061224,0,0,1.3934395,0.6530611,1.6829076)" />
    <linearGradient
       x1="12.578789"
       y1="-7.8073711"
       x2="12.578789"
       y2="41.827358"
       id="linearGradient2512"
       xlink:href="#linearGradient2238"
       gradientUnits="userSpaceOnUse"
       gradientTransform="matrix(1.3099699,0,0,1.2296537,0.5591292,6.2253186)" />
    <radialGradient
       cx="1.080768"
       cy="10.165854"
       r="23"
       fx="1.080768"
       fy="10.165854"
       id="radialGradient2541"
       xlink:href="#linearGradient3242-593-605-251-305"
       gradientUnits="userSpaceOnUse"
       gradientTransform="matrix(1.2204995e-7,1.860664,-3.0316171,8.4055669e-8,62.818972,14.241464)" />
    <linearGradient
       x1="10.014208"
       y1="44.960102"
       x2="10.014208"
       y2="2.8764627"
       id="linearGradient2543"
       xlink:href="#linearGradient3332-412-419-652-471"
       gradientUnits="userSpaceOnUse"
       gradientTransform="matrix(1.2979404,0,0,1.2209765,0.8494547,5.1815944)" />
  </defs>
  <g
     transform="matrix(3.1520357e-2,0,0,1.6723728e-2,60.035049,55.520298)"
     id="g2546">
    <rect
       width="1339.6335"
       height="478.35718"
       x="-1559.2523"
       y="-150.69685"
       id="rect2512"
       style="opacity:0.40206185;fill:url(#linearGradient2488);fill-opacity:1;fill-rule:nonzero;stroke:none;stroke-width:1;stroke-linecap:round;stroke-linejoin:miter;marker:none;marker-start:none;marker-mid:none;marker-end:none;stroke-miterlimit:4;stroke-dasharray:none;stroke-dashoffset:0;stroke-opacity:1;visibility:visible;display:inline;overflow:visible" />
    <path
       d="M -219.61876,-150.68038 C -219.61876,-150.68038 -219.61876,327.65041 -219.61876,327.65041 C -76.744594,328.55086 125.78146,220.48075 125.78138,88.454235 C 125.78138,-43.572302 -33.655436,-150.68036 -219.61876,-150.68038 z"
       id="path2514"
       style="opacity:0.40206185;fill:url(#radialGradient2490);fill-opacity:1;fill-rule:nonzero;stroke:none;stroke-width:1;stroke-linecap:round;stroke-linejoin:miter;marker:none;marker-start:none;marker-mid:none;marker-end:none;stroke-miterlimit:4;stroke-dasharray:none;stroke-dashoffset:0;stroke-opacity:1;visibility:visible;display:inline;overflow:visible" />
    <path
       d="M -1559.2523,-150.68038 C -1559.2523,-150.68038 -1559.2523,327.65041 -1559.2523,327.65041 C -1702.1265,328.55086 -1904.6525,220.48075 -1904.6525,88.454235 C -1904.6525,-43.572302 -1745.2157,-150.68036 -1559.2523,-150.68038 z"
       id="path2516"
       style="opacity:0.40206185;fill:url(#radialGradient2492);fill-opacity:1;fill-rule:nonzero;stroke:none;stroke-width:1;stroke-linecap:round;stroke-linejoin:miter;marker:none;marker-start:none;marker-mid:none;marker-end:none;stroke-miterlimit:4;stroke-dasharray:none;stroke-dashoffset:0;stroke-opacity:1;visibility:visible;display:inline;overflow:visible" />
  </g>
  <rect
     width="61"
     height="50"
     rx="3.4106524"
     ry="3.4106524"
     x="1.5"
     y="9.5"
     id="rect2551"
     style="fill:url(#radialGradient2541);fill-opacity:1;fill-rule:evenodd;stroke:url(#linearGradient2543);stroke-width:1;stroke-linecap:round;stroke-linejoin:round;stroke-miterlimit:4;stroke-dasharray:none;stroke-dashoffset:0;stroke-opacity:1" />
  <g
     transform="matrix(1.3556197,0,0,1.3514292,-0.5348737,0.7142709)"
     id="g3503"
     style="stroke-width:0.74351883;stroke-miterlimit:4;stroke-dasharray:none">
    <path
       d="M 5.71875,7 L 23.59375,24.96875 L 10.5625,7 L 5.71875,7 z"
       id="path13905"
       style="opacity:0.07086612;fill:#eeeeec;fill-rule:evenodd;stroke:none;stroke-width:0.74351883;stroke-linecap:butt;stroke-linejoin:miter;stroke-miterlimit:4;stroke-dasharray:none;stroke-opacity:1;display:inline" />
    <path
       d="M 45.15625,7.46875 L 25.0625,24.8125 L 46,11.78125 L 46,9.15625 C 46,8.4558663 45.668987,7.8640444 45.15625,7.46875 z"
       id="path13907"
       style="opacity:0.07086612;fill:#eeeeec;fill-rule:evenodd;stroke:none;stroke-width:0.74351883;stroke-linecap:butt;stroke-linejoin:miter;stroke-miterlimit:4;stroke-dasharray:none;stroke-opacity:1;display:inline" />
    <path
       d="M 24.90625,25.375 L 46,35.6875 L 46,26.96875 L 24.90625,25.375 z"
       id="path13909"
       style="opacity:0.07086612;fill:#eeeeec;fill-rule:evenodd;stroke:none;stroke-width:0.74351883;stroke-linecap:butt;stroke-linejoin:miter;stroke-miterlimit:4;stroke-dasharray:none;stroke-opacity:1;display:inline" />
    <path
       d="M 24.5625,25.6875 L 30.03125,43 L 39.78125,43 L 24.5625,25.6875 z"
       id="path13911"
       style="opacity:0.07086612;fill:#eeeeec;fill-rule:evenodd;stroke:none;stroke-width:0.74351883;stroke-linecap:butt;stroke-linejoin:miter;stroke-miterlimit:4;stroke-dasharray:none;stroke-opacity:1;display:inline" />
    <path
       d="M 23.875,25.8125 C 23.463627,25.665381 9.9514594,37.061203 3.21875,42.78125 C 3.5037244,42.918789 3.8174992,43 4.15625,43 L 10.0625,43 L 23.875,25.8125 z"
       id="path13913"
       style="opacity:0.07086612;fill:#eeeeec;fill-rule:evenodd;stroke:none;stroke-width:0.74351883;stroke-linecap:butt;stroke-linejoin:miter;stroke-miterlimit:4;stroke-dasharray:none;stroke-opacity:1;display:inline" />
    <path
       d="M 2,22.65625 L 2,31.625 L 23,25.71875 L 2,22.65625 z"
       id="path13915"
       style="opacity:0.02078738;fill:#000000;fill-opacity:1;fill-rule:evenodd;stroke:none;stroke-width:0.74351883;stroke-linecap:butt;stroke-linejoin:miter;marker:none;marker-start:none;marker-mid:none;marker-end:none;stroke-miterlimit:4;stroke-dasharray:none;stroke-dashoffset:0;stroke-opacity:1;visibility:visible;display:inline;overflow:visible;enable-background:accumulate" />
    <path
       d="M 2.03125,8.78125 C 2.009942,8.9036079 2,9.0276113 2,9.15625 L 2,17.0625 L 24.03125,25.21875 L 2.03125,8.78125 z"
       id="path13917"
       style="opacity:0.07086612;fill:#eeeeec;fill-rule:evenodd;stroke:none;stroke-width:0.74351883;stroke-linecap:butt;stroke-linejoin:miter;stroke-miterlimit:4;stroke-dasharray:none;stroke-opacity:1;display:inline" />
    <path
       d="M 21.9375,7 L 24.65625,24.5625 L 35.8125,7 L 21.9375,7 z"
       id="path13919"
       style="opacity:0.07086612;fill:#eeeeec;fill-rule:evenodd;stroke:none;stroke-width:0.74351883;stroke-linecap:butt;stroke-linejoin:miter;stroke-miterlimit:4;stroke-dasharray:none;stroke-opacity:1;display:inline" />
    <path
       d="M 24.28125,25.90625 L 20.78125,43 L 26.6875,43 L 24.28125,25.90625 z"
       id="path13921"
       style="opacity:0.07086612;fill:#eeeeec;fill-rule:evenodd;stroke:none;stroke-width:0.74351883;stroke-linecap:butt;stroke-linejoin:miter;stroke-miterlimit:4;stroke-dasharray:none;stroke-opacity:1;display:inline" />
    <path
       d="M 10.65625,7 L 23.96875,24.78125 L 18.625,7 L 10.65625,7 z"
       id="path13923"
       style="opacity:0.02078738;fill:#000000;fill-opacity:1;fill-rule:evenodd;stroke:none;stroke-width:0.74351883;stroke-linecap:butt;stroke-linejoin:miter;stroke-miterlimit:4;stroke-dasharray:none;stroke-opacity:1;display:inline" />
    <path
       d="M 41.1875,7 L 30.1875,19.75 L 44.34375,7.0625 C 44.181596,7.0239823 44.018018,7 43.84375,7 L 41.1875,7 z"
       id="path13925"
       style="opacity:0.02078738;fill:#ffffff;fill-opacity:1;fill-rule:evenodd;stroke:none;stroke-width:0.74351883;stroke-linecap:butt;stroke-linejoin:miter;stroke-miterlimit:4;stroke-dasharray:none;stroke-opacity:1;display:inline" />
    <path
       d="M 46,15.71875 L 24.96875,25.1875 L 46,22.6875 L 46,15.71875 z"
       id="path13927"
       style="opacity:0.02078738;fill:#000000;fill-opacity:1;fill-rule:evenodd;stroke:none;stroke-width:0.74351883;stroke-linecap:butt;stroke-linejoin:miter;marker:none;marker-start:none;marker-mid:none;marker-end:none;stroke-miterlimit:4;stroke-dasharray:none;stroke-dashoffset:0;stroke-opacity:1;visibility:visible;display:inline;overflow:visible;enable-background:accumulate" />
    <path
       d="M 24.96875,25.8125 L 46,40.90625 C 46.000606,40.885089 46,40.865063 46,40.84375 L 46,37.59375 L 24.96875,25.8125 z"
       id="path13929"
       style="opacity:0.02078738;fill:#ffffff;fill-opacity:1;fill-rule:evenodd;stroke:none;stroke-width:0.74351883;stroke-linecap:butt;stroke-linejoin:miter;stroke-miterlimit:4;stroke-dasharray:none;stroke-opacity:1;display:inline" />
    <path
       d="M 24.0625,25.90625 C 23.927882,25.761819 16.769429,37.21187 13.53125,43 L 20.0625,43 L 24.0625,25.90625 z"
       id="path13931"
       style="opacity:0.02078738;fill:#000000;fill-opacity:1;fill-rule:evenodd;stroke:none;stroke-width:0.74351883;stroke-linecap:butt;stroke-linejoin:miter;marker:none;marker-start:none;marker-mid:none;marker-end:none;stroke-miterlimit:4;stroke-dasharray:none;stroke-dashoffset:0;stroke-opacity:1;visibility:visible;display:inline;overflow:visible;enable-background:accumulate" />
    <path
       d="M 23.25,25.875 L 2,33.0625 L 2,40.65625 L 23.25,25.875 z"
       id="path13933"
       style="opacity:0.02078738;fill:#ffffff;fill-opacity:1;fill-rule:evenodd;stroke:none;stroke-width:0.74351883;stroke-linecap:butt;stroke-linejoin:miter;stroke-miterlimit:4;stroke-dasharray:none;stroke-opacity:1;display:inline" />
    <path
       d="M 2,17.53125 L 2,20.71875 L 23.65625,25.53125 L 2,17.53125 z"
       id="path13935"
       style="opacity:0.02078738;fill:#ffffff;fill-opacity:1;fill-rule:evenodd;stroke:none;stroke-width:0.74351883;stroke-linecap:butt;stroke-linejoin:miter;stroke-miterlimit:4;stroke-dasharray:none;stroke-opacity:1;display:inline" />
    <path
       d="M 15.34375,7 L 23.71875,24.40625 L 16.78125,7 L 15.34375,7 z"
       id="path13937"
       style="opacity:0.07086612;fill:#ffffff;fill-opacity:1;fill-rule:evenodd;stroke:none;stroke-width:0.74351883;stroke-linecap:butt;stroke-linejoin:miter;stroke-miterlimit:4;stroke-dasharray:none;stroke-opacity:1;display:inline" />
    <path
       d="M 46,18.1875 L 25.59375,25.15625 L 46,20.21875 L 46,18.1875 z"
       id="path13939"
       style="opacity:0.11083972;fill:#ffffff;fill-opacity:1;fill-rule:evenodd;stroke:none;stroke-width:0.74351883;stroke-linecap:butt;stroke-linejoin:miter;stroke-miterlimit:4;stroke-dasharray:none;stroke-opacity:1;display:inline" />
    <path
       d="M 23.71875,25.46875 L 2,27 L 2,29.6875 L 23.71875,25.46875 z"
       id="path13941"
       style="opacity:0.12824432;fill:#ffffff;fill-opacity:1;fill-rule:evenodd;stroke:none;stroke-width:0.74351883;stroke-linecap:butt;stroke-linejoin:miter;stroke-miterlimit:4;stroke-dasharray:none;stroke-opacity:1;display:inline" />
    <path
       d="M 19.21875,30.5625 L 5.625,43 L 8.09375,43 L 19.21875,30.5625 z"
       id="path13943"
       style="opacity:0.06961831;fill:#ffffff;fill-opacity:1;fill-rule:evenodd;stroke:none;stroke-width:0.74351883;stroke-linecap:butt;stroke-linejoin:miter;stroke-miterlimit:4;stroke-dasharray:none;stroke-opacity:1;display:inline" />
    <path
       d="M 29.84375,29.8125 L 44,43 C 45.125099,42.9194 46,41.990081 46,40.84375 L 46,40.71875 L 29.84375,29.8125 z"
       id="path13945"
       style="opacity:0.09251906;fill:#ffffff;fill-opacity:1;fill-rule:evenodd;stroke:none;stroke-width:0.74351883;stroke-linecap:butt;stroke-linejoin:miter;stroke-miterlimit:4;stroke-dasharray:none;stroke-opacity:1;display:inline" />
    <path
       d="M 27.21875,26.4375 L 46,35 L 46,31.53125 L 27.21875,26.4375 z"
       id="path13947"
       style="opacity:0.07086612;fill:#ffffff;fill-opacity:1;fill-rule:evenodd;stroke:none;stroke-width:0.74351883;stroke-linecap:butt;stroke-linejoin:miter;stroke-miterlimit:4;stroke-dasharray:none;stroke-opacity:1;display:inline" />
    <path
       d="M 2.03125,8.71875 C 2.0024997,8.859964 2,9.0062984 2,9.15625 L 2,10.78125 L 18.6875,21.6875 L 2.03125,8.71875 z"
       id="path13949"
       style="opacity:0.06687024;fill:#ffffff;fill-opacity:1;fill-rule:evenodd;stroke:none;stroke-width:0.74351883;stroke-linecap:butt;stroke-linejoin:miter;stroke-miterlimit:4;stroke-dasharray:none;stroke-opacity:1;display:inline" />
    <path
       d="M 33.4375,7 L 25.15625,23.625 L 35.90625,7 L 33.4375,7 z"
       id="path13951"
       style="opacity:0.07328246;fill:#ffffff;fill-opacity:1;fill-rule:evenodd;stroke:none;stroke-width:0.74351883;stroke-linecap:butt;stroke-linejoin:miter;stroke-miterlimit:4;stroke-dasharray:none;stroke-opacity:1;display:inline" />
    <path
       d="M 24.28125,25.90625 L 25,43 L 26.6875,43 L 24.28125,25.90625 z"
       id="path9905"
       style="opacity:0.10076336;fill:#eeeeec;fill-rule:evenodd;stroke:none;stroke-width:0.74351883;stroke-linecap:butt;stroke-linejoin:miter;stroke-miterlimit:4;stroke-dasharray:none;stroke-opacity:1;display:inline" />
  </g>
  <rect
     width="59"
     height="48"
     rx="2.5336254"
     ry="2.5336254"
     x="2.5"
     y="10.5"
     id="rect2556"
     style="opacity:0.4;fill:none;fill-opacity:1;fill-rule:evenodd;stroke:url(#linearGradient2512);stroke-width:1;stroke-linecap:round;stroke-linejoin:round;stroke-miterlimit:4;stroke-dasharray:none;stroke-dashoffset:0;stroke-opacity:1" />
  <path
     d="M 4.8571428,9.9999999 C 3.2789851,9.9999999 2,11.364489 2,13.048148 L 2,35.343181 C 2.0036202,35.530743 2.0807152,35.708113 2.2125711,35.832233 C 2.3444266,35.956355 2.5189865,36.015879 2.6938773,35.996356 L 61.469387,26.068101 C 61.771726,26.01723 61.995773,25.741431 62,25.414924 L 62,13.048148 C 62,11.364489 60.721015,9.9999999 59.142856,9.9999999 L 4.8571428,9.9999999 z"
     id="path3333"
     style="opacity:0.2;fill:url(#linearGradient2509);fill-opacity:1;fill-rule:evenodd;stroke:none;stroke-width:1;stroke-linecap:round;stroke-linejoin:round;stroke-miterlimit:4;stroke-dasharray:none;stroke-dashoffset:0;stroke-opacity:1" />
  <path
     d="M 35.071429,33.964285 C 35.071429,35.08858 34.160009,36 33.035715,36 C 31.911421,36 31,35.08858 31,33.964285 C 31,32.839991 31.911421,31.92857 33.035715,31.92857 C 34.160009,31.92857 35.071429,32.839991 35.071429,33.964285 z"
     id="path2818-3"
     style="opacity:0.3;fill:#000000;fill-opacity:1;stroke:none;stroke-width:1.03822255;stroke-miterlimit:4;stroke-dasharray:none" />
  <path
     d="M 32.953234,14.999999 C 32.444697,14.999999 31.963145,15.253949 31.519596,15.717777 C 31.076046,16.181606 30.674364,16.857344 30.296787,17.702222 C 29.552888,19.366786 28.922037,21.713269 28.483656,24.499999 C 25.908948,22.792362 23.577409,21.529778 21.694956,20.826666 C 20.743857,20.471422 19.894226,20.240705 19.207172,20.193333 C 18.520119,20.14596 17.969168,20.25445 17.60487,20.573333 C 17.163605,20.95961 17.0613,21.597436 17.225378,22.388888 C 17.389456,23.180341 17.829114,24.157695 18.490353,25.259999 C 19.799485,27.442359 22.007765,30.172927 24.857394,33.07111 C 21.260335,35.219723 18.327593,37.330187 16.424227,39.15111 C 15.460609,40.072991 14.749546,40.910554 14.358101,41.642221 C 13.966657,42.373889 13.874662,43.022735 14.189438,43.499999 C 14.481804,43.943283 15.063619,44.177102 15.876071,44.259999 C 16.688524,44.342897 17.761588,44.305076 18.996343,44.09111 C 21.436521,43.66826 24.604836,42.664834 28.146329,41.262221 C 28.531339,44.654567 29.189377,47.550755 30.001626,49.622221 C 30.412884,50.671047 30.856497,51.533654 31.350932,52.113332 C 31.845368,52.69301 32.3803,52.999999 32.953234,52.999999 C 33.462614,52.999999 33.935631,52.744459 34.386873,52.282221 C 34.838114,51.819983 35.264227,51.183856 35.651848,50.339999 C 36.411048,48.687204 37.023669,46.315959 37.464978,43.542221 C 40.045681,45.255467 42.411971,46.506301 44.295844,47.215555 C 45.250099,47.574819 46.052378,47.799675 46.741462,47.848888 C 47.430546,47.898101 48.020266,47.788955 48.38593,47.468888 C 48.632495,47.25306 48.759759,46.93728 48.807588,46.582221 C 48.855417,46.227163 48.80795,45.823891 48.68109,45.357777 C 48.427371,44.425548 47.853291,43.284135 46.994457,41.979999 C 45.276791,39.371729 42.455991,36.116331 38.898617,32.775555 C 38.884724,32.77253 38.870343,32.77253 38.856451,32.775555 C 38.842559,32.77253 38.828178,32.77253 38.814285,32.775555 C 38.800393,32.77253 38.786012,32.77253 38.772119,32.775555 C 38.758227,32.77253 38.743846,32.77253 38.729953,32.775555 C 38.726932,32.789466 38.726932,32.803866 38.729953,32.817777 C 38.726932,32.831688 38.726932,32.846088 38.729953,32.859999 C 38.726932,32.87391 38.726932,32.88831 38.729953,32.902222 C 38.726932,32.916133 38.726932,32.930533 38.729953,32.944444 C 41.528951,35.657664 43.726993,38.256459 45.012663,40.333333 C 45.655498,41.37177 46.073137,42.27294 46.235472,42.993333 C 46.397807,43.713725 46.286379,44.210389 45.940311,44.513333 C 45.691782,44.730878 45.308609,44.863913 44.801834,44.85111 C 44.295058,44.838307 43.709844,44.670618 42.988703,44.428888 C 41.55854,43.949491 39.717944,43.06614 37.717973,41.81111 C 38.011503,39.425857 38.181798,36.78928 38.181798,33.999999 C 38.181798,31.94332 38.092988,29.985743 37.928803,28.13111 C 40.987248,26.923043 43.726783,26.111634 45.813814,25.766666 C 46.861656,25.593467 47.757173,25.520607 48.428095,25.597777 C 49.099018,25.674947 49.525148,25.870342 49.735236,26.188888 C 49.943116,26.50404 49.94051,26.958946 49.69307,27.497777 C 49.445631,28.036608 48.935462,28.653374 48.259432,29.355555 C 46.907371,30.759917 44.79186,32.424521 42.10322,34.126666 C 42.089328,34.123641 42.074947,34.123641 42.061054,34.126666 C 42.058033,34.140577 42.058033,34.154977 42.061054,34.168888 C 42.058033,34.182799 42.058033,34.197199 42.061054,34.21111 C 42.058033,34.225021 42.058033,34.239422 42.061054,34.253333 C 42.058033,34.267244 42.058033,34.281644 42.061054,34.295555 C 42.074947,34.29858 42.089328,34.29858 42.10322,34.295555 C 42.117113,34.29858 42.131494,34.29858 42.145386,34.295555 C 42.159279,34.29858 42.173659,34.29858 42.187552,34.295555 C 45.49457,32.247797 48.191776,30.220086 49.9039,28.51111 C 50.75996,27.656622 51.378614,26.91148 51.71703,26.23111 C 52.055447,25.550741 52.098698,24.950806 51.801362,24.499999 C 51.508587,24.056092 50.929746,23.785337 50.114729,23.697777 C 49.299711,23.610217 48.233277,23.700427 46.994457,23.908888 C 44.546245,24.320861 41.353007,25.29006 37.802305,26.695555 C 37.417182,23.300607 36.76972,20.396062 35.947008,18.335555 C 35.530453,17.29228 35.05409,16.461849 34.555536,15.886666 C 34.056982,15.311483 33.526059,14.999999 32.953234,14.999999 z M 32.320747,18.546666 C 32.725877,18.546666 33.112663,18.767443 33.50139,19.179999 C 33.890117,19.592556 34.2557,20.214669 34.597702,20.995555 C 35.278022,22.548915 35.875696,24.745938 36.242169,27.37111 C 34.354987,28.163474 32.38309,29.019343 30.381118,30.03111 C 28.889176,30.785105 27.506813,31.582208 26.164535,32.353333 C 23.747483,29.882945 21.859969,27.583721 20.767308,25.724444 C 20.217708,24.789241 19.880804,23.965838 19.755328,23.317777 C 19.629852,22.669717 19.729241,22.205645 20.050489,21.924444 C 20.302029,21.70424 20.670831,21.571654 21.188966,21.586666 C 21.707101,21.601678 22.349154,21.759937 23.086429,22.008888 C 24.548965,22.502737 26.408182,23.42348 28.44149,24.71111 C 28.138557,26.695759 27.903188,28.865908 27.809002,31.213333 C 27.805981,31.227244 27.805981,31.241644 27.809002,31.255555 C 27.805981,31.269466 27.805981,31.283866 27.809002,31.297777 C 27.822895,31.300802 27.837276,31.300802 27.851168,31.297777 C 27.865061,31.300802 27.879442,31.300802 27.893334,31.297777 C 27.907227,31.300802 27.921607,31.300802 27.9355,31.297777 C 27.949392,31.300802 27.963773,31.300802 27.977666,31.297777 C 27.980687,31.283866 27.980687,31.269466 27.977666,31.255555 C 27.980687,31.241644 27.980687,31.227244 27.977666,31.213333 C 28.112268,28.900366 28.397802,26.790815 28.778817,24.964444 C 29.427631,25.384368 30.122579,25.831211 30.802777,26.315555 C 30.816669,26.31858 30.83105,26.31858 30.844942,26.315555 C 30.858835,26.31858 30.873216,26.31858 30.887108,26.315555 C 30.905155,26.306144 30.919876,26.291404 30.929274,26.273333 C 30.932295,26.259422 30.932295,26.245022 30.929274,26.23111 C 30.932295,26.217199 30.932295,26.202799 30.929274,26.188888 C 30.932295,26.174977 30.932295,26.160577 30.929274,26.146666 C 30.915382,26.143641 30.901001,26.143641 30.887108,26.146666 C 30.192161,25.641114 29.491151,25.162187 28.820982,24.71111 C 29.230342,22.822776 29.781249,21.308062 30.381118,20.235555 C 30.985431,19.155104 31.65317,18.546666 32.320747,18.546666 z M 36.410833,28.722222 C 36.605694,30.532205 36.705993,32.530482 36.705993,34.59111 C 36.705995,36.840735 36.557977,38.940757 36.326501,40.882221 C 34.271341,39.498231 32.122837,37.872882 29.917294,35.942222 C 28.951228,35.096566 28.033932,34.244944 27.176515,33.408888 C 28.572972,32.575177 30.043322,31.727767 31.646093,30.917777 C 33.261922,30.101087 34.876084,29.369371 36.410833,28.722222 z M 25.91154,34.126666 C 26.970442,35.162491 28.083288,36.199277 29.284807,37.25111 C 30.163467,38.02026 31.070121,38.741291 31.941254,39.446666 C 28.416134,40.975163 25.193321,42.074015 22.706936,42.57111 C 21.448894,42.822628 20.352224,42.922588 19.544499,42.866666 C 18.736774,42.810743 18.218856,42.588864 17.984363,42.233333 C 17.772143,41.91157 17.803171,41.478483 18.068695,40.924444 C 18.334218,40.370404 18.832821,39.704072 19.544499,38.982221 C 20.953825,37.552754 23.156544,35.850855 25.91154,34.126666 z M 32.109917,39.615555 C 33.463213,40.702185 34.825686,41.708746 36.115672,42.613333 C 35.730612,45.01432 35.16812,46.999569 34.51337,48.397777 C 34.184061,49.101011 33.828415,49.633459 33.459224,50.002221 C 33.090034,50.370984 32.704865,50.593332 32.320747,50.593332 C 31.900865,50.593332 31.500459,50.360879 31.097937,49.917777 C 30.695416,49.474675 30.310246,48.810643 29.95946,47.975555 C 29.265188,46.322761 28.665356,43.983733 28.314992,41.219999 C 29.54277,40.730863 30.811087,40.206292 32.109917,39.615555 z"
     id="path3323"
     style="opacity:0.3;fill:#000000;fill-opacity:1;stroke:none;stroke-width:0.74733722;stroke-miterlimit:4;stroke-dasharray:none" />
  <path
     d="M 35,35 C 35,36.104571 34.10457,37 33,37 C 31.895431,37 31,36.104571 31,35 C 31,33.895431 31.895431,33 33,33 C 34.10457,33 35,33.895431 35,35 z"
     id="path3335"
     style="fill:#d8f9ff;fill-opacity:1;stroke:none;stroke-width:1.03822255;stroke-miterlimit:4;stroke-dasharray:none" />
  <path
     d="M 32.953234,15.999999 C 32.444697,15.999999 31.963145,16.253949 31.519596,16.717777 C 31.076046,17.181605 30.674364,17.857343 30.296787,18.702221 C 29.552888,20.366786 28.922037,22.713269 28.483656,25.499998 C 25.908948,23.792362 23.577409,22.529777 21.694956,21.826665 C 20.743857,21.471422 19.894226,21.240705 19.207172,21.193332 C 18.520119,21.14596 17.969168,21.25445 17.60487,21.573332 C 17.163605,21.959609 17.0613,22.597435 17.225378,23.388888 C 17.389456,24.18034 17.829114,25.157695 18.490353,26.259998 C 19.799485,28.442357 22.007765,31.172926 24.857394,34.071109 C 21.260335,36.219721 18.327593,38.330185 16.424227,40.151108 C 15.460609,41.072989 14.749546,41.910552 14.358101,42.642219 C 13.966657,43.373886 13.874662,44.022733 14.189438,44.499997 C 14.481804,44.94328 15.063619,45.177099 15.876071,45.259997 C 16.688524,45.342894 17.761588,45.305074 18.996343,45.091108 C 21.436521,44.668258 24.604836,43.664832 28.146329,42.262219 C 28.531339,45.654565 29.189377,48.550752 30.001626,50.622219 C 30.412884,51.671044 30.856497,52.533652 31.350932,53.11333 C 31.845368,53.693008 32.3803,53.999996 32.953234,53.999996 C 33.462614,53.999996 33.935631,53.744456 34.386873,53.282218 C 34.838114,52.81998 35.264227,52.183853 35.651848,51.339996 C 36.411048,49.687201 37.023669,47.315957 37.464978,44.542219 C 40.045681,46.255464 42.411971,47.506299 44.295844,48.215552 C 45.250099,48.574817 46.052378,48.799673 46.741462,48.848885 C 47.430546,48.898098 48.020266,48.788953 48.38593,48.468885 C 48.632495,48.253058 48.759759,47.937277 48.807588,47.582219 C 48.855417,47.22716 48.80795,46.823889 48.68109,46.357775 C 48.427371,45.425546 47.853291,44.284133 46.994457,42.979997 C 45.276791,40.371727 42.455991,37.116329 38.898617,33.775553 C 38.884724,33.772528 38.870343,33.772528 38.856451,33.775553 C 38.842559,33.772528 38.828178,33.772528 38.814285,33.775553 C 38.800393,33.772528 38.786012,33.772528 38.772119,33.775553 C 38.758227,33.772528 38.743846,33.772528 38.729953,33.775553 C 38.726932,33.789464 38.726932,33.803865 38.729953,33.817776 C 38.726932,33.831687 38.726932,33.846087 38.729953,33.859998 C 38.726932,33.873909 38.726932,33.888309 38.729953,33.90222 C 38.726932,33.916131 38.726932,33.930531 38.729953,33.944442 C 41.528951,36.657662 43.726993,39.256457 45.012663,41.333331 C 45.655498,42.371767 46.073137,43.272938 46.235472,43.99333 C 46.397807,44.713722 46.286379,45.210387 45.940311,45.51333 C 45.691782,45.730875 45.308609,45.863911 44.801834,45.851108 C 44.295058,45.838305 43.709844,45.670616 42.988703,45.428886 C 41.55854,44.949489 39.717944,44.066138 37.717973,42.811108 C 38.011503,40.425855 38.181798,37.789279 38.181798,34.999998 C 38.181798,32.943319 38.092988,30.985742 37.928803,29.131109 C 40.987248,27.923042 43.726783,27.111633 45.813814,26.766665 C 46.861656,26.593466 47.757173,26.520606 48.428095,26.597776 C 49.099018,26.674946 49.525148,26.870341 49.735236,27.188887 C 49.943116,27.504039 49.94051,27.958945 49.69307,28.497776 C 49.445631,29.036607 48.935462,29.653373 48.259432,30.355554 C 46.907371,31.759916 44.79186,33.42452 42.10322,35.126664 C 42.089328,35.123639 42.074947,35.123639 42.061054,35.126664 C 42.058033,35.140575 42.058033,35.154976 42.061054,35.168887 C 42.058033,35.182798 42.058033,35.197198 42.061054,35.211109 C 42.058033,35.22502 42.058033,35.23942 42.061054,35.253331 C 42.058033,35.267242 42.058033,35.281642 42.061054,35.295553 C 42.074947,35.298578 42.089328,35.298578 42.10322,35.295553 C 42.117113,35.298578 42.131494,35.298578 42.145386,35.295553 C 42.159279,35.298578 42.173659,35.298578 42.187552,35.295553 C 45.49457,33.247796 48.191776,31.220085 49.9039,29.511109 C 50.75996,28.656621 51.378614,27.911479 51.71703,27.231109 C 52.055447,26.55074 52.098698,25.950805 51.801362,25.499998 C 51.508587,25.056091 50.929746,24.785336 50.114729,24.697776 C 49.299711,24.610216 48.233277,24.700426 46.994457,24.908887 C 44.546245,25.32086 41.353007,26.290059 37.802305,27.695554 C 37.417182,24.300606 36.76972,21.396061 35.947008,19.335555 C 35.530453,18.292279 35.05409,17.461849 34.555536,16.886666 C 34.056982,16.311483 33.526059,15.999999 32.953234,15.999999 z M 32.320747,19.546666 C 32.725877,19.546666 33.112663,19.767443 33.50139,20.179999 C 33.890117,20.592555 34.2557,21.214669 34.597702,21.995554 C 35.278022,23.548914 35.875696,25.745937 36.242169,28.371109 C 34.354987,29.163472 32.38309,30.019342 30.381118,31.031109 C 28.889176,31.785103 27.506813,32.582206 26.164535,33.353331 C 23.747483,30.882944 21.859969,28.58372 20.767308,26.724443 C 20.217708,25.78924 19.880804,24.965837 19.755328,24.317776 C 19.629852,23.669716 19.729241,23.205644 20.050489,22.924443 C 20.302029,22.704239 20.670831,22.571653 21.188966,22.586665 C 21.707101,22.601678 22.349154,22.759936 23.086429,23.008888 C 24.548965,23.502736 26.408182,24.423479 28.44149,25.71111 C 28.138557,27.695758 27.903188,29.865907 27.809002,32.213331 C 27.805981,32.227242 27.805981,32.241642 27.809002,32.255553 C 27.805981,32.269465 27.805981,32.283865 27.809002,32.297776 C 27.822895,32.300801 27.837276,32.300801 27.851168,32.297776 C 27.865061,32.300801 27.879442,32.300801 27.893334,32.297776 C 27.907227,32.300801 27.921607,32.300801 27.9355,32.297776 C 27.949392,32.300801 27.963773,32.300801 27.977666,32.297776 C 27.980687,32.283865 27.980687,32.269465 27.977666,32.255553 C 27.980687,32.241642 27.980687,32.227242 27.977666,32.213331 C 28.112268,29.900364 28.397802,27.790814 28.778817,25.964443 C 29.427631,26.384367 30.122579,26.83121 30.802777,27.315554 C 30.816669,27.318579 30.83105,27.318579 30.844942,27.315554 C 30.858835,27.318579 30.873216,27.318579 30.887108,27.315554 C 30.905155,27.306143 30.919876,27.291403 30.929274,27.273332 C 30.932295,27.259421 30.932295,27.24502 30.929274,27.231109 C 30.932295,27.217198 30.932295,27.202798 30.929274,27.188887 C 30.932295,27.174976 30.932295,27.160576 30.929274,27.146665 C 30.915382,27.14364 30.901001,27.14364 30.887108,27.146665 C 30.192161,26.641113 29.491151,26.162186 28.820982,25.71111 C 29.230342,23.822775 29.781249,22.308061 30.381118,21.235554 C 30.985431,20.155103 31.65317,19.546666 32.320747,19.546666 z M 36.410833,29.72222 C 36.605694,31.532204 36.705993,33.530481 36.705993,35.591109 C 36.705995,37.840733 36.557977,39.940755 36.326501,41.882219 C 34.271341,40.498229 32.122837,38.87288 29.917294,36.94222 C 28.951228,36.096565 28.033932,35.244942 27.176515,34.408887 C 28.572972,33.575175 30.043322,32.727765 31.646093,31.917776 C 33.261922,31.101086 34.876084,30.36937 36.410833,29.72222 z M 25.91154,35.126664 C 26.970442,36.16249 28.083288,37.199275 29.284807,38.251109 C 30.163467,39.020258 31.070121,39.741289 31.941254,40.446664 C 28.416134,41.975161 25.193321,43.074013 22.706936,43.571108 C 21.448894,43.822626 20.352224,43.922586 19.544499,43.866664 C 18.736774,43.810741 18.218856,43.588862 17.984363,43.23333 C 17.772143,42.911567 17.803171,42.478481 18.068695,41.924442 C 18.334218,41.370402 18.832821,40.704069 19.544499,39.98222 C 20.953825,38.552752 23.156544,36.850854 25.91154,35.126664 z M 32.109917,40.615553 C 33.463213,41.702182 34.825686,42.708744 36.115672,43.61333 C 35.730612,46.014318 35.16812,47.999566 34.51337,49.397774 C 34.184061,50.101009 33.828415,50.633456 33.459224,51.002219 C 33.090034,51.370981 32.704865,51.59333 32.320747,51.59333 C 31.900865,51.59333 31.500459,51.360876 31.097937,50.917774 C 30.695416,50.474672 30.310246,49.81064 29.95946,48.975552 C 29.265188,47.322758 28.665356,44.983731 28.314992,42.219997 C 29.54277,41.730861 30.811087,41.20629 32.109917,40.615553 z"
     id="path3337"
     style="fill:#d8f9ff;fill-opacity:1;stroke:none;stroke-width:0.74733722;stroke-miterlimit:4;stroke-dasharray:none" />
</svg>
