<?xml version="1.0" encoding="UTF-8" standalone="no"?>
<!-- Created with Inkscape (http://www.inkscape.org/) -->
<svg
   xmlns:svg="http://www.w3.org/2000/svg"
   xmlns="http://www.w3.org/2000/svg"
   xmlns:xlink="http://www.w3.org/1999/xlink"
   version="1.0"
   width="48"
   height="48"
   id="svg5186">
  <defs
     id="defs5188">
    <linearGradient
       x1="116.29638"
       y1="32.374962"
       x2="116.29638"
       y2="226.17993"
       id="linearGradient3351"
       xlink:href="#linearGradient3202"
       gradientUnits="userSpaceOnUse"
       gradientTransform="matrix(0.1340781,0,0,0.1393324,6.9846373,7.4891146)" />
    <radialGradient
       cx="605.71429"
       cy="486.64789"
       r="117.14286"
       fx="605.71429"
       fy="486.64789"
       id="radialGradient2834"
       xlink:href="#linearGradient5060"
       gradientUnits="userSpaceOnUse"
       gradientTransform="matrix(-2.774389,0,0,1.969706,112.7623,-872.8854)" />
    <linearGradient
       id="linearGradient5060">
      <stop
         id="stop5062"
         style="stop-color:#000000;stop-opacity:1"
         offset="0" />
      <stop
         id="stop5064"
         style="stop-color:#000000;stop-opacity:0"
         offset="1" />
    </linearGradient>
    <radialGradient
       cx="605.71429"
       cy="486.64789"
       r="117.14286"
       fx="605.71429"
       fy="486.64789"
       id="radialGradient2832"
       xlink:href="#linearGradient5060"
       gradientUnits="userSpaceOnUse"
       gradientTransform="matrix(2.774389,0,0,1.969706,-1891.633,-872.8854)" />
    <linearGradient
       id="linearGradient5048">
      <stop
         id="stop5050"
         style="stop-color:#000000;stop-opacity:0"
         offset="0" />
      <stop
         id="stop5056"
         style="stop-color:#000000;stop-opacity:1"
         offset="0.5" />
      <stop
         id="stop5052"
         style="stop-color:#000000;stop-opacity:0"
         offset="1" />
    </linearGradient>
    <linearGradient
       x1="302.85715"
       y1="366.64789"
       x2="302.85715"
       y2="609.50507"
       id="linearGradient2830"
       xlink:href="#linearGradient5048"
       gradientUnits="userSpaceOnUse"
       gradientTransform="matrix(2.774389,0,0,1.969706,-1892.179,-872.8854)" />
    <linearGradient
       id="linearGradient3332-412-419-652-471">
      <stop
         id="stop2759"
         style="stop-color:#650d5c;stop-opacity:1"
         offset="0" />
      <stop
         id="stop2761"
         style="stop-color:#ad53a5;stop-opacity:1"
         offset="1" />
    </linearGradient>
    <linearGradient
       id="linearGradient3242-593-605-251-305">
      <stop
         id="stop2749"
         style="stop-color:#d78ec1;stop-opacity:1"
         offset="0" />
      <stop
         id="stop2751"
         style="stop-color:#c564be;stop-opacity:1"
         offset="0.26238" />
      <stop
         id="stop2753"
         style="stop-color:#9d3ea4;stop-opacity:1"
         offset="0.66093999" />
      <stop
         id="stop2755"
         style="stop-color:#5e2c73;stop-opacity:1"
         offset="1" />
    </linearGradient>
    <linearGradient
       id="linearGradient2238">
      <stop
         id="stop2240"
         style="stop-color:#ffffff;stop-opacity:1"
         offset="0" />
      <stop
         id="stop2242"
         style="stop-color:#ffffff;stop-opacity:0"
         offset="1" />
    </linearGradient>
    <linearGradient
       id="linearGradient3202">
      <stop
         id="stop3204"
         style="stop-color:#ffffff;stop-opacity:1"
         offset="0" />
      <stop
         id="stop3206"
         style="stop-color:#ced3d6;stop-opacity:1"
         offset="1" />
    </linearGradient>
    <linearGradient
       id="linearGradient8265-821-176-38-919-66-249">
      <stop
         id="stop2687"
         style="stop-color:#ffffff;stop-opacity:1"
         offset="0" />
      <stop
         id="stop2689"
         style="stop-color:#ffffff;stop-opacity:0"
         offset="1" />
    </linearGradient>
    <linearGradient
       x1="16.626165"
       y1="15.298182"
       x2="20.054544"
       y2="24.627615"
       id="linearGradient3669"
       xlink:href="#linearGradient8265-821-176-38-919-66-249"
       gradientUnits="userSpaceOnUse"
       gradientTransform="matrix(0.9578231,0,0,1.0182827,1.0122449,1.9221271)" />
    <linearGradient
       x1="12.578789"
       y1="-7.8073711"
       x2="12.578789"
       y2="41.827358"
       id="linearGradient3676"
       xlink:href="#linearGradient2238"
       gradientUnits="userSpaceOnUse"
       gradientTransform="matrix(0.9546411,0,0,0.8965269,1.0874559,5.3852444)" />
    <linearGradient
       x1="116.29638"
       y1="32.374962"
       x2="116.29638"
       y2="273.25674"
       id="linearGradient2535"
       xlink:href="#linearGradient3202"
       gradientUnits="userSpaceOnUse" />
    <radialGradient
       cx="1.080768"
       cy="10.165854"
       r="23"
       fx="1.080768"
       fy="10.165854"
       id="radialGradient5827-298-266"
       xlink:href="#linearGradient3242-593-605-251-305-611-783-329-246-200-38-179-24-325"
       gradientUnits="userSpaceOnUse"
       gradientTransform="matrix(9.0032595e-8,1.3768123,-2.2363332,6.2197622e-8,46.734235,11.009548)" />
    <linearGradient
       id="linearGradient3242-593-605-251-305-611-783-329-246-200-38-179-24-325">
      <stop
         id="stop6295"
         style="stop-color:#9ba7db;stop-opacity:1"
         offset="0" />
      <stop
         id="stop6297"
         style="stop-color:#6f99cd;stop-opacity:1"
         offset="0.26238" />
      <stop
         id="stop6299"
         style="stop-color:#4683b0;stop-opacity:1"
         offset="0.66093999" />
      <stop
         id="stop6301"
         style="stop-color:#2c7387;stop-opacity:1"
         offset="1" />
    </linearGradient>
    <linearGradient
       x1="10.014208"
       y1="44.960102"
       x2="10.014208"
       y2="2.8764627"
       id="linearGradient5829-632-49"
       xlink:href="#linearGradient3332-412-419-652-471-84-177-907-6-893-113-271-332-430"
       gradientUnits="userSpaceOnUse"
       gradientTransform="matrix(0.9574517,0,0,0.9034707,1.0211778,4.3056302)" />
    <linearGradient
       id="linearGradient3332-412-419-652-471-84-177-907-6-893-113-271-332-430">
      <stop
         id="stop6305"
         style="stop-color:#09387d;stop-opacity:1"
         offset="0" />
      <stop
         id="stop6307"
         style="stop-color:#5a82b7;stop-opacity:1"
         offset="1" />
    </linearGradient>
    <linearGradient
       x1="10.014208"
       y1="44.960102"
       x2="10.014208"
       y2="2.8764627"
       id="linearGradient3293"
       xlink:href="#linearGradient3332-412-419-652-471"
       gradientUnits="userSpaceOnUse"
       gradientTransform="matrix(0.9574517,0,0,0.9034707,1.0211778,4.3056302)" />
    <radialGradient
       cx="1.080768"
       cy="10.165854"
       r="23"
       fx="1.080768"
       fy="10.165854"
       id="radialGradient3291"
       xlink:href="#linearGradient3242-593-605-251-305"
       gradientUnits="userSpaceOnUse"
       gradientTransform="matrix(9.0032595e-8,1.3768123,-2.2363332,6.2197622e-8,46.734235,11.009548)" />
    <linearGradient
       x1="12.578789"
       y1="-7.8073711"
       x2="12.578789"
       y2="41.827358"
       id="linearGradient3262"
       xlink:href="#linearGradient2238"
       gradientUnits="userSpaceOnUse"
       gradientTransform="matrix(0.9546411,0,0,0.8965269,1.0874559,5.3852444)" />
    <linearGradient
       x1="16.626165"
       y1="15.298182"
       x2="20.054544"
       y2="24.627615"
       id="linearGradient3255"
       xlink:href="#linearGradient8265-821-176-38-919-66-249"
       gradientUnits="userSpaceOnUse"
       gradientTransform="matrix(0.9578231,0,0,1.0182827,1.0122449,1.9221271)" />
    <linearGradient
       x1="302.85715"
       y1="366.64789"
       x2="302.85715"
       y2="609.50507"
       id="linearGradient7239"
       xlink:href="#linearGradient5048"
       gradientUnits="userSpaceOnUse"
       gradientTransform="matrix(2.774389,0,0,1.969706,-1892.179,-872.8854)" />
    <radialGradient
       cx="605.71429"
       cy="486.64789"
       r="117.14286"
       fx="605.71429"
       fy="486.64789"
       id="radialGradient7241"
       xlink:href="#linearGradient5060"
       gradientUnits="userSpaceOnUse"
       gradientTransform="matrix(2.774389,0,0,1.969706,-1891.633,-872.8854)" />
    <radialGradient
       cx="605.71429"
       cy="486.64789"
       r="117.14286"
       fx="605.71429"
       fy="486.64789"
       id="radialGradient7243"
       xlink:href="#linearGradient5060"
       gradientUnits="userSpaceOnUse"
       gradientTransform="matrix(-2.774389,0,0,1.969706,112.7623,-872.8854)" />
  </defs>
  <g
     transform="matrix(2.3621214e-2,0,0,1.2542929e-2,45.009548,41.890179)"
     id="g2546">
    <rect
       width="1339.6335"
       height="478.35718"
       x="-1559.2523"
       y="-150.69685"
       id="rect2512"
       style="opacity:0.40206185;fill:url(#linearGradient2830);fill-opacity:1;fill-rule:nonzero;stroke:none;stroke-width:1;stroke-linecap:round;stroke-linejoin:miter;marker:none;marker-start:none;marker-mid:none;marker-end:none;stroke-miterlimit:4;stroke-dasharray:none;stroke-dashoffset:0;stroke-opacity:1;visibility:visible;display:inline;overflow:visible" />
    <path
       d="M -219.61876,-150.68038 C -219.61876,-150.68038 -219.61876,327.65041 -219.61876,327.65041 C -76.744594,328.55086 125.78146,220.48075 125.78138,88.454235 C 125.78138,-43.572302 -33.655436,-150.68036 -219.61876,-150.68038 z"
       id="path2514"
       style="opacity:0.40206185;fill:url(#radialGradient2832);fill-opacity:1;fill-rule:nonzero;stroke:none;stroke-width:1;stroke-linecap:round;stroke-linejoin:miter;marker:none;marker-start:none;marker-mid:none;marker-end:none;stroke-miterlimit:4;stroke-dasharray:none;stroke-dashoffset:0;stroke-opacity:1;visibility:visible;display:inline;overflow:visible" />
    <path
       d="M -1559.2523,-150.68038 C -1559.2523,-150.68038 -1559.2523,327.65041 -1559.2523,327.65041 C -1702.1265,328.55086 -1904.6525,220.48075 -1904.6525,88.454235 C -1904.6525,-43.572302 -1745.2157,-150.68036 -1559.2523,-150.68038 z"
       id="path2516"
       style="opacity:0.40206185;fill:url(#radialGradient2834);fill-opacity:1;fill-rule:nonzero;stroke:none;stroke-width:1;stroke-linecap:round;stroke-linejoin:miter;marker:none;marker-start:none;marker-mid:none;marker-end:none;stroke-miterlimit:4;stroke-dasharray:none;stroke-dashoffset:0;stroke-opacity:1;visibility:visible;display:inline;overflow:visible" />
  </g>
  <rect
     width="44.997868"
     height="36.997868"
     rx="2.6659844"
     ry="2.6659844"
     x="1.5010653"
     y="7.5010662"
     id="rect2551"
     style="fill:url(#radialGradient5827-298-266);fill-opacity:1;fill-rule:evenodd;stroke:url(#linearGradient5829-632-49);stroke-width:1.00213289;stroke-linecap:round;stroke-linejoin:round;stroke-miterlimit:4;stroke-dasharray:none;stroke-dashoffset:0;stroke-opacity:1" />
  <g
     transform="translate(0,1.0000012)"
     id="g3503">
    <path
       d="M 5.71875,7 L 23.59375,24.96875 L 10.5625,7 L 5.71875,7 z"
       id="path13905"
       style="opacity:0.07086612;fill:#eeeeec;fill-rule:evenodd;stroke:none;stroke-width:1px;stroke-linecap:butt;stroke-linejoin:miter;stroke-opacity:1;display:inline" />
    <path
       d="M 45.15625,7.46875 L 25.0625,24.8125 L 46,11.78125 L 46,9.15625 C 46,8.4558663 45.668987,7.8640444 45.15625,7.46875 z"
       id="path13907"
       style="opacity:0.07086612;fill:#eeeeec;fill-rule:evenodd;stroke:none;stroke-width:1px;stroke-linecap:butt;stroke-linejoin:miter;stroke-opacity:1;display:inline" />
    <path
       d="M 24.90625,25.375 L 46,35.6875 L 46,26.96875 L 24.90625,25.375 z"
       id="path13909"
       style="opacity:0.07086612;fill:#eeeeec;fill-rule:evenodd;stroke:none;stroke-width:1px;stroke-linecap:butt;stroke-linejoin:miter;stroke-opacity:1;display:inline" />
    <path
       d="M 24.5625,25.6875 L 30.03125,43 L 39.78125,43 L 24.5625,25.6875 z"
       id="path13911"
       style="opacity:0.07086612;fill:#eeeeec;fill-rule:evenodd;stroke:none;stroke-width:1px;stroke-linecap:butt;stroke-linejoin:miter;stroke-opacity:1;display:inline" />
    <path
       d="M 23.875,25.8125 C 23.463627,25.665381 9.9514594,37.061203 3.21875,42.78125 C 3.5037244,42.918789 3.8174992,43 4.15625,43 L 10.0625,43 L 23.875,25.8125 z"
       id="path13913"
       style="opacity:0.07086612;fill:#eeeeec;fill-rule:evenodd;stroke:none;stroke-width:1px;stroke-linecap:butt;stroke-linejoin:miter;stroke-opacity:1;display:inline" />
    <path
       d="M 2,22.65625 L 2,31.625 L 23,25.71875 L 2,22.65625 z"
       id="path13915"
       style="opacity:0.02078738;fill:#000000;fill-opacity:1;fill-rule:evenodd;stroke:none;stroke-width:1px;stroke-linecap:butt;stroke-linejoin:miter;marker:none;marker-start:none;marker-mid:none;marker-end:none;stroke-miterlimit:4;stroke-dasharray:none;stroke-dashoffset:0;stroke-opacity:1;visibility:visible;display:inline;overflow:visible;enable-background:accumulate" />
    <path
       d="M 2.03125,8.78125 C 2.009942,8.9036079 2,9.0276113 2,9.15625 L 2,17.0625 L 24.03125,25.21875 L 2.03125,8.78125 z"
       id="path13917"
       style="opacity:0.07086612;fill:#eeeeec;fill-rule:evenodd;stroke:none;stroke-width:1px;stroke-linecap:butt;stroke-linejoin:miter;stroke-opacity:1;display:inline" />
    <path
       d="M 21.9375,7 L 24.65625,24.5625 L 35.8125,7 L 21.9375,7 z"
       id="path13919"
       style="opacity:0.07086612;fill:#eeeeec;fill-rule:evenodd;stroke:none;stroke-width:1px;stroke-linecap:butt;stroke-linejoin:miter;stroke-opacity:1;display:inline" />
    <path
       d="M 24.28125,25.90625 L 20.78125,43 L 26.6875,43 L 24.28125,25.90625 z"
       id="path13921"
       style="opacity:0.07086612;fill:#eeeeec;fill-rule:evenodd;stroke:none;stroke-width:1px;stroke-linecap:butt;stroke-linejoin:miter;stroke-opacity:1;display:inline" />
    <path
       d="M 10.65625,7 L 23.96875,24.78125 L 18.625,7 L 10.65625,7 z"
       id="path13923"
       style="opacity:0.02078738;fill:#000000;fill-opacity:1;fill-rule:evenodd;stroke:none;stroke-width:1px;stroke-linecap:butt;stroke-linejoin:miter;stroke-opacity:1;display:inline" />
    <path
       d="M 41.1875,7 L 30.1875,19.75 L 44.34375,7.0625 C 44.181596,7.0239823 44.018018,7 43.84375,7 L 41.1875,7 z"
       id="path13925"
       style="opacity:0.02078738;fill:#ffffff;fill-opacity:1;fill-rule:evenodd;stroke:none;stroke-width:1px;stroke-linecap:butt;stroke-linejoin:miter;stroke-opacity:1;display:inline" />
    <path
       d="M 46,15.71875 L 24.96875,25.1875 L 46,22.6875 L 46,15.71875 z"
       id="path13927"
       style="opacity:0.02078738;fill:#000000;fill-opacity:1;fill-rule:evenodd;stroke:none;stroke-width:1px;stroke-linecap:butt;stroke-linejoin:miter;marker:none;marker-start:none;marker-mid:none;marker-end:none;stroke-miterlimit:4;stroke-dasharray:none;stroke-dashoffset:0;stroke-opacity:1;visibility:visible;display:inline;overflow:visible;enable-background:accumulate" />
    <path
       d="M 24.96875,25.8125 L 46,40.90625 C 46.000606,40.885089 46,40.865063 46,40.84375 L 46,37.59375 L 24.96875,25.8125 z"
       id="path13929"
       style="opacity:0.02078738;fill:#ffffff;fill-opacity:1;fill-rule:evenodd;stroke:none;stroke-width:1px;stroke-linecap:butt;stroke-linejoin:miter;stroke-opacity:1;display:inline" />
    <path
       d="M 24.0625,25.90625 C 23.927882,25.761819 16.769429,37.21187 13.53125,43 L 20.0625,43 L 24.0625,25.90625 z"
       id="path13931"
       style="opacity:0.02078738;fill:#000000;fill-opacity:1;fill-rule:evenodd;stroke:none;stroke-width:1px;stroke-linecap:butt;stroke-linejoin:miter;marker:none;marker-start:none;marker-mid:none;marker-end:none;stroke-miterlimit:4;stroke-dasharray:none;stroke-dashoffset:0;stroke-opacity:1;visibility:visible;display:inline;overflow:visible;enable-background:accumulate" />
    <path
       d="M 23.25,25.875 L 2,33.0625 L 2,40.65625 L 23.25,25.875 z"
       id="path13933"
       style="opacity:0.02078738;fill:#ffffff;fill-opacity:1;fill-rule:evenodd;stroke:none;stroke-width:1px;stroke-linecap:butt;stroke-linejoin:miter;stroke-opacity:1;display:inline" />
    <path
       d="M 2,17.53125 L 2,20.71875 L 23.65625,25.53125 L 2,17.53125 z"
       id="path13935"
       style="opacity:0.02078738;fill:#ffffff;fill-opacity:1;fill-rule:evenodd;stroke:none;stroke-width:1px;stroke-linecap:butt;stroke-linejoin:miter;stroke-opacity:1;display:inline" />
    <path
       d="M 15.34375,7 L 23.71875,24.40625 L 16.78125,7 L 15.34375,7 z"
       id="path13937"
       style="opacity:0.07086612;fill:#ffffff;fill-opacity:1;fill-rule:evenodd;stroke:none;stroke-width:1px;stroke-linecap:butt;stroke-linejoin:miter;stroke-opacity:1;display:inline" />
    <path
       d="M 46,18.1875 L 25.59375,25.15625 L 46,20.21875 L 46,18.1875 z"
       id="path13939"
       style="opacity:0.11083972;fill:#ffffff;fill-opacity:1;fill-rule:evenodd;stroke:none;stroke-width:1px;stroke-linecap:butt;stroke-linejoin:miter;stroke-opacity:1;display:inline" />
    <path
       d="M 23.71875,25.46875 L 2,27 L 2,29.6875 L 23.71875,25.46875 z"
       id="path13941"
       style="opacity:0.12824432;fill:#ffffff;fill-opacity:1;fill-rule:evenodd;stroke:none;stroke-width:1px;stroke-linecap:butt;stroke-linejoin:miter;stroke-opacity:1;display:inline" />
    <path
       d="M 19.21875,30.5625 L 5.625,43 L 8.09375,43 L 19.21875,30.5625 z"
       id="path13943"
       style="opacity:0.06961831;fill:#ffffff;fill-opacity:1;fill-rule:evenodd;stroke:none;stroke-width:1px;stroke-linecap:butt;stroke-linejoin:miter;stroke-opacity:1;display:inline" />
    <path
       d="M 29.84375,29.8125 L 44,43 C 45.125099,42.9194 46,41.990081 46,40.84375 L 46,40.71875 L 29.84375,29.8125 z"
       id="path13945"
       style="opacity:0.09251906;fill:#ffffff;fill-opacity:1;fill-rule:evenodd;stroke:none;stroke-width:1px;stroke-linecap:butt;stroke-linejoin:miter;stroke-opacity:1;display:inline" />
    <path
       d="M 27.21875,26.4375 L 46,35 L 46,31.53125 L 27.21875,26.4375 z"
       id="path13947"
       style="opacity:0.07086612;fill:#ffffff;fill-opacity:1;fill-rule:evenodd;stroke:none;stroke-width:1px;stroke-linecap:butt;stroke-linejoin:miter;stroke-opacity:1;display:inline" />
    <path
       d="M 2.03125,8.71875 C 2.0024997,8.859964 2,9.0062984 2,9.15625 L 2,10.78125 L 18.6875,21.6875 L 2.03125,8.71875 z"
       id="path13949"
       style="opacity:0.06687024;fill:#ffffff;fill-opacity:1;fill-rule:evenodd;stroke:none;stroke-width:1px;stroke-linecap:butt;stroke-linejoin:miter;stroke-opacity:1;display:inline" />
    <path
       d="M 33.4375,7 L 25.15625,23.625 L 35.90625,7 L 33.4375,7 z"
       id="path13951"
       style="opacity:0.07328246;fill:#ffffff;fill-opacity:1;fill-rule:evenodd;stroke:none;stroke-width:1px;stroke-linecap:butt;stroke-linejoin:miter;stroke-opacity:1;display:inline" />
    <path
       d="M 24.28125,25.90625 L 25,43 L 26.6875,43 L 24.28125,25.90625 z"
       id="path9905"
       style="opacity:0.10076336;fill:#eeeeec;fill-rule:evenodd;stroke:none;stroke-width:1px;stroke-linecap:butt;stroke-linejoin:miter;stroke-opacity:1;display:inline" />
  </g>
  <rect
     width="42.996269"
     height="34.996269"
     rx="1.6959794"
     ry="1.6959794"
     x="2.5018659"
     y="8.5018673"
     id="rect2556"
     style="opacity:0.4;fill:none;fill-opacity:1;fill-rule:evenodd;stroke:url(#linearGradient3676);stroke-width:1.00373149;stroke-linecap:round;stroke-linejoin:round;stroke-miterlimit:4;stroke-dasharray:none;stroke-dashoffset:0;stroke-opacity:1" />
  <path
     d="M 4.095238,8.000002 C 2.9379224,8.000002 2,8.9971279 2,10.227495 L 2,26.520018 C 2.0026549,26.657082 2.0591913,26.786698 2.1558855,26.877402 C 2.2525796,26.968106 2.3805901,27.011605 2.5088435,26.997338 L 45.610883,19.742074 C 45.832599,19.7049 45.996899,19.503355 45.999999,19.264754 L 45.999999,10.227495 C 45.999999,8.9971279 45.062076,8.000002 43.904761,8.000002 L 4.095238,8.000002 z"
     id="path3333"
     style="opacity:0.2;fill:url(#linearGradient3669);fill-opacity:1;fill-rule:evenodd;stroke:none;stroke-width:1.00213289;stroke-linecap:round;stroke-linejoin:round;stroke-miterlimit:4;stroke-dasharray:none;stroke-dashoffset:0;stroke-opacity:1" />
  <path
     d="M 24,11 C 22.342727,11 20.999502,12.344025 21,14 C 20.999613,15.286831 21.829473,16.355466 22.96875,16.78125 C 22.969559,17.190586 22.972557,17.606897 22.96875,18 L 18.53125,18 C 18.235536,18 18,18.235535 18,18.53125 L 18,19.46875 C 18,19.764464 18.235535,20 18.53125,20 L 22.9375,20 C 22.931196,23.217046 22.968749,26.650423 22.96875,31.125 C 22.976621,31.863047 22.997567,32.605991 22.96875,33.34375 C 22.976281,33.463155 22.909038,33.585717 22.8125,33.65625 C 22.539219,33.86064 22.210817,33.927975 21.875,33.9375 C 21.341002,33.934195 21.010916,33.797769 20.5,33.65625 C 19.346184,33.318481 18.244912,32.846458 17.1875,32.28125 C 16.742298,32.03415 16.302372,31.789357 15.90625,31.46875 C 15.735515,31.322926 15.544354,31.115997 15.5625,30.875 C 15.585564,30.692565 15.674292,30.502126 15.875,30.46875 C 16.055897,30.440068 16.215041,30.533304 16.375,30.59375 C 16.512893,30.653284 16.615807,30.489746 16.59375,30.375 C 16.571556,30.072711 16.46893,29.79291 16.3125,29.53125 C 15.987038,28.995314 15.488592,28.592767 14.96875,28.25 C 14.413729,27.895161 13.820378,27.505023 13.46875,26.9375 C 13.398804,26.832613 13.312963,26.662984 13.15625,26.71875 C 12.938392,26.789494 12.825454,27.003239 12.71875,27.1875 C 12.418528,27.759463 12.260359,28.372554 12.125,29 C 12.013726,29.49923 11.992382,30.02257 12.03125,30.53125 C 12.071488,31.040221 12.106598,31.555945 12.3125,32.03125 C 12.44217,32.3436 12.678921,32.599329 12.90625,32.84375 C 13.051308,32.690209 13.19535,32.525399 13.34375,32.375 C 13.536062,32.181724 13.781042,32.056237 14.0625,32.09375 C 14.445579,32.143113 14.792705,32.371598 15.09375,32.59375 C 15.517793,32.923865 15.9117,33.27323 16.34375,33.59375 C 17.027413,34.116799 17.78785,34.50361 18.5625,34.875 C 19.207891,35.175045 19.861505,35.474734 20.53125,35.71875 C 20.65119,35.771191 20.784139,35.768807 20.90625,35.8125 C 22.111636,36.314365 23.134397,36.890669 23.96875,37.9375 C 23.969911,37.951868 23.967517,37.986311 23.96875,38 C 23.978322,37.987591 23.990373,37.981027 24,37.96875 C 24.009627,37.981027 24.021678,37.987591 24.03125,38 C 24.037512,37.971089 24.025098,37.935282 24.03125,37.90625 C 24.862989,36.871561 25.895675,36.311321 27.09375,35.8125 C 27.215861,35.768807 27.34881,35.771191 27.46875,35.71875 C 28.138495,35.474734 28.792109,35.175045 29.4375,34.875 C 30.21215,34.50361 30.972587,34.116799 31.65625,33.59375 C 32.0883,33.27323 32.482207,32.923865 32.90625,32.59375 C 33.207295,32.371598 33.554421,32.143113 33.9375,32.09375 C 34.218958,32.056237 34.463938,32.181724 34.65625,32.375 C 34.80465,32.525399 34.948692,32.690209 35.09375,32.84375 C 35.321079,32.599329 35.55783,32.3436 35.6875,32.03125 C 35.893402,31.555945 35.928512,31.040221 35.96875,30.53125 C 36.007618,30.02257 35.986274,29.49923 35.875,29 C 35.739641,28.372554 35.581472,27.759463 35.28125,27.1875 C 35.174546,27.003239 35.061608,26.789494 34.84375,26.71875 C 34.687037,26.662984 34.601196,26.832613 34.53125,26.9375 C 34.179622,27.505023 33.586271,27.895161 33.03125,28.25 C 32.511408,28.592767 32.012962,28.995314 31.6875,29.53125 C 31.53107,29.79291 31.428444,30.072711 31.40625,30.375 C 31.384193,30.489746 31.487107,30.653284 31.625,30.59375 C 31.784959,30.533304 31.944103,30.440068 32.125,30.46875 C 32.325708,30.502126 32.414436,30.692565 32.4375,30.875 C 32.455646,31.115997 32.264485,31.322926 32.09375,31.46875 C 31.697628,31.789357 31.257702,32.03415 30.8125,32.28125 C 29.755088,32.846458 28.653816,33.318481 27.5,33.65625 C 26.989084,33.797769 26.658998,33.934195 26.125,33.9375 C 25.789183,33.927975 25.460781,33.86064 25.1875,33.65625 C 25.090962,33.585717 25.023719,33.463155 25.03125,33.34375 C 25.002433,32.605991 25.023379,31.863047 25.03125,31.125 C 25.031251,26.650423 25.068804,23.217046 25.0625,20 L 29.46875,20 C 29.764465,20 30,19.764464 30,19.46875 L 30,18.53125 C 30,18.235535 29.764464,18 29.46875,18 L 25.03125,18 C 25.027443,17.606897 25.030441,17.190586 25.03125,16.78125 C 26.170525,16.355466 27.000388,15.286831 27,14 C 27.000499,12.344025 25.657267,11 24,11 z M 23.9375,12.46875 C 24.742,12.46875 25.406493,13.102379 25.40625,13.90625 C 25.406492,14.710122 24.742,15.375 23.9375,15.375 C 23.132998,15.375 22.468508,14.710123 22.46875,13.90625 C 22.468508,13.102379 23.132998,12.46875 23.9375,12.46875 z"
     id="path3361"
     style="fill:#1d0090;fill-opacity:0.29803922;fill-rule:nonzero;stroke:none;stroke-width:10;stroke-miterlimit:4;stroke-dasharray:none;stroke-opacity:1" />
  <path
     d="M 24,12 C 22.342727,12 20.999502,13.344025 21,15 C 20.999613,16.286831 21.829473,17.355466 22.96875,17.78125 C 22.969559,18.190586 22.972557,18.606897 22.96875,19 L 18.53125,19 C 18.235536,19 18,19.235535 18,19.53125 L 18,20.46875 C 18,20.764464 18.235535,21 18.53125,21 L 22.9375,21 C 22.931196,24.217046 22.968749,27.650423 22.96875,32.125 C 22.976621,32.863047 22.997567,33.605991 22.96875,34.34375 C 22.976281,34.463155 22.909038,34.585717 22.8125,34.65625 C 22.539219,34.86064 22.210817,34.927975 21.875,34.9375 C 21.341002,34.934195 21.010916,34.797769 20.5,34.65625 C 19.346184,34.318481 18.244912,33.846458 17.1875,33.28125 C 16.742298,33.03415 16.302372,32.789357 15.90625,32.46875 C 15.735515,32.322926 15.544354,32.115997 15.5625,31.875 C 15.585564,31.692565 15.674292,31.502126 15.875,31.46875 C 16.055897,31.440068 16.215041,31.533304 16.375,31.59375 C 16.512893,31.653284 16.615807,31.489746 16.59375,31.375 C 16.571556,31.072711 16.46893,30.79291 16.3125,30.53125 C 15.987038,29.995314 15.488592,29.592767 14.96875,29.25 C 14.413729,28.895161 13.820378,28.505023 13.46875,27.9375 C 13.398804,27.832613 13.312963,27.662984 13.15625,27.71875 C 12.938392,27.789494 12.825454,28.003239 12.71875,28.1875 C 12.418528,28.759463 12.260359,29.372554 12.125,30 C 12.013726,30.49923 11.992382,31.02257 12.03125,31.53125 C 12.071488,32.040221 12.106598,32.555945 12.3125,33.03125 C 12.44217,33.3436 12.678921,33.599329 12.90625,33.84375 C 13.051308,33.690209 13.19535,33.525399 13.34375,33.375 C 13.536062,33.181724 13.781042,33.056237 14.0625,33.09375 C 14.445579,33.143113 14.792705,33.371598 15.09375,33.59375 C 15.517793,33.923865 15.9117,34.27323 16.34375,34.59375 C 17.027413,35.116799 17.78785,35.50361 18.5625,35.875 C 19.207891,36.175045 19.861505,36.474734 20.53125,36.71875 C 20.65119,36.771191 20.784139,36.768807 20.90625,36.8125 C 22.111636,37.314365 23.134397,37.890669 23.96875,38.9375 C 23.969911,38.951868 23.967517,38.986311 23.96875,39 C 23.978322,38.987591 23.990373,38.981027 24,38.96875 C 24.009627,38.981027 24.021678,38.987591 24.03125,39 C 24.037512,38.971089 24.025098,38.935282 24.03125,38.90625 C 24.862989,37.871561 25.895675,37.311321 27.09375,36.8125 C 27.215861,36.768807 27.34881,36.771191 27.46875,36.71875 C 28.138495,36.474734 28.792109,36.175045 29.4375,35.875 C 30.21215,35.50361 30.972587,35.116799 31.65625,34.59375 C 32.0883,34.27323 32.482207,33.923865 32.90625,33.59375 C 33.207295,33.371598 33.554421,33.143113 33.9375,33.09375 C 34.218958,33.056237 34.463938,33.181724 34.65625,33.375 C 34.80465,33.525399 34.948692,33.690209 35.09375,33.84375 C 35.321079,33.599329 35.55783,33.3436 35.6875,33.03125 C 35.893402,32.555945 35.928512,32.040221 35.96875,31.53125 C 36.007618,31.02257 35.986274,30.49923 35.875,30 C 35.739641,29.372554 35.581472,28.759463 35.28125,28.1875 C 35.174546,28.003239 35.061608,27.789494 34.84375,27.71875 C 34.687037,27.662984 34.601196,27.832613 34.53125,27.9375 C 34.179622,28.505023 33.586271,28.895161 33.03125,29.25 C 32.511408,29.592767 32.012962,29.995314 31.6875,30.53125 C 31.53107,30.79291 31.428444,31.072711 31.40625,31.375 C 31.384193,31.489746 31.487107,31.653284 31.625,31.59375 C 31.784959,31.533304 31.944103,31.440068 32.125,31.46875 C 32.325708,31.502126 32.414436,31.692565 32.4375,31.875 C 32.455646,32.115997 32.264485,32.322926 32.09375,32.46875 C 31.697628,32.789357 31.257702,33.03415 30.8125,33.28125 C 29.755088,33.846458 28.653816,34.318481 27.5,34.65625 C 26.989084,34.797769 26.658998,34.934195 26.125,34.9375 C 25.789183,34.927975 25.460781,34.86064 25.1875,34.65625 C 25.090962,34.585717 25.023719,34.463155 25.03125,34.34375 C 25.002433,33.605991 25.023379,32.863047 25.03125,32.125 C 25.031251,27.650423 25.068804,24.217046 25.0625,21 L 29.46875,21 C 29.764465,21 30,20.764464 30,20.46875 L 30,19.53125 C 30,19.235535 29.764464,19 29.46875,19 L 25.03125,19 C 25.027443,18.606897 25.030441,18.190586 25.03125,17.78125 C 26.170525,17.355466 27.000388,16.286831 27,15 C 27.000499,13.344025 25.657267,12 24,12 z M 23.9375,13.46875 C 24.742,13.46875 25.406493,14.102379 25.40625,14.90625 C 25.406492,15.710122 24.742,16.375 23.9375,16.375 C 23.132998,16.375 22.468508,15.710123 22.46875,14.90625 C 22.468508,14.102379 23.132998,13.46875 23.9375,13.46875 z"
     id="path1919"
     style="fill:url(#linearGradient3351);fill-opacity:1;fill-rule:nonzero;stroke:none;stroke-width:10;stroke-miterlimit:4;stroke-dasharray:none;stroke-opacity:1" />
</svg>
