<?xml version="1.0" encoding="UTF-8" standalone="no"?>
<!-- Created with Inkscape (http://www.inkscape.org/) -->
<svg
   xmlns:svg="http://www.w3.org/2000/svg"
   xmlns="http://www.w3.org/2000/svg"
   xmlns:xlink="http://www.w3.org/1999/xlink"
   version="1.0"
   width="128"
   height="128"
   id="svg3904">
  <defs
     id="defs3906">
    <linearGradient
       id="linearGradient3202">
      <stop
         id="stop3204"
         style="stop-color:#ffffff;stop-opacity:1"
         offset="0" />
      <stop
         id="stop3206"
         style="stop-color:#ced3d6;stop-opacity:1"
         offset="1" />
    </linearGradient>
    <linearGradient
       id="linearGradient8265-821-176-38-919-66-249">
      <stop
         id="stop2687"
         style="stop-color:#ffffff;stop-opacity:1"
         offset="0" />
      <stop
         id="stop2689"
         style="stop-color:#ffffff;stop-opacity:0"
         offset="1" />
    </linearGradient>
    <linearGradient
       id="linearGradient2238">
      <stop
         id="stop2240"
         style="stop-color:#ffffff;stop-opacity:1"
         offset="0" />
      <stop
         id="stop2242"
         style="stop-color:#ffffff;stop-opacity:0"
         offset="1" />
    </linearGradient>
    <linearGradient
       id="linearGradient2867-449-88-871-390-598-476-591-434-148">
      <stop
         id="stop4627"
         style="stop-color:#51cfee;stop-opacity:1"
         offset="0" />
      <stop
         id="stop4629"
         style="stop-color:#49a3d2;stop-opacity:1"
         offset="0.26238" />
      <stop
         id="stop4631"
         style="stop-color:#3470b4;stop-opacity:1"
         offset="0.704952" />
      <stop
         id="stop4633"
         style="stop-color:#1b5699;stop-opacity:1"
         offset="1" />
    </linearGradient>
    <linearGradient
       id="linearGradient3707-319-631">
      <stop
         id="stop4637"
         style="stop-color:#254b6d;stop-opacity:1"
         offset="0" />
      <stop
         id="stop4639"
         style="stop-color:#415b73;stop-opacity:1"
         offset="0.5" />
      <stop
         id="stop4641"
         style="stop-color:#6195b5;stop-opacity:1"
         offset="1" />
    </linearGradient>
    <linearGradient
       id="linearGradient5048">
      <stop
         id="stop5050"
         style="stop-color:#000000;stop-opacity:0"
         offset="0" />
      <stop
         id="stop5056"
         style="stop-color:#000000;stop-opacity:1"
         offset="0.5" />
      <stop
         id="stop5052"
         style="stop-color:#000000;stop-opacity:0"
         offset="1" />
    </linearGradient>
    <linearGradient
       id="linearGradient5060">
      <stop
         id="stop5062"
         style="stop-color:#000000;stop-opacity:1"
         offset="0" />
      <stop
         id="stop5064"
         style="stop-color:#000000;stop-opacity:0"
         offset="1" />
    </linearGradient>
    <linearGradient
       x1="116.29638"
       y1="32.374962"
       x2="116.29638"
       y2="226.17993"
       id="linearGradient3428"
       xlink:href="#linearGradient3202"
       gradientUnits="userSpaceOnUse"
       gradientTransform="matrix(0.3579392,0,0,0.3715531,18.575247,20.970974)" />
    <linearGradient
       x1="16.626165"
       y1="15.298182"
       x2="20.054544"
       y2="24.627615"
       id="linearGradient3432"
       xlink:href="#linearGradient8265-821-176-38-919-66-249"
       gradientUnits="userSpaceOnUse"
       gradientTransform="matrix(2.5329843,0,0,2.7246927,3.2083737,4.5730963)" />
    <linearGradient
       x1="12.578789"
       y1="-7.8073711"
       x2="12.578789"
       y2="41.827358"
       id="linearGradient3435"
       xlink:href="#linearGradient2238"
       gradientUnits="userSpaceOnUse"
       gradientTransform="matrix(2.5976542,0,0,2.4848295,1.6531435,11.863781)" />
    <radialGradient
       cx="1.080768"
       cy="10.165854"
       r="23"
       fx="1.080768"
       fy="10.165854"
       id="radialGradient3464"
       xlink:href="#linearGradient2867-449-88-871-390-598-476-591-434-148"
       gradientUnits="userSpaceOnUse"
       gradientTransform="matrix(2.3809317e-7,3.6840362,-5.9140321,1.6642668e-7,124.12118,28.888964)" />
    <linearGradient
       x1="10.014208"
       y1="44.960102"
       x2="10.014208"
       y2="2.8764627"
       id="linearGradient3466"
       xlink:href="#linearGradient3707-319-631"
       gradientUnits="userSpaceOnUse"
       gradientTransform="matrix(2.532002,0,0,2.4174818,3.2319968,10.950807)" />
    <linearGradient
       x1="302.85715"
       y1="366.64789"
       x2="302.85715"
       y2="609.50507"
       id="linearGradient3472"
       xlink:href="#linearGradient5048"
       gradientUnits="userSpaceOnUse"
       gradientTransform="matrix(2.774389,0,0,1.969706,-1892.179,-872.8854)" />
    <radialGradient
       cx="605.71429"
       cy="486.64789"
       r="117.14286"
       fx="605.71429"
       fy="486.64789"
       id="radialGradient3474"
       xlink:href="#linearGradient5060"
       gradientUnits="userSpaceOnUse"
       gradientTransform="matrix(2.774389,0,0,1.969706,-1891.633,-872.8854)" />
    <radialGradient
       cx="605.71429"
       cy="486.64789"
       r="117.14286"
       fx="605.71429"
       fy="486.64789"
       id="radialGradient3476"
       xlink:href="#linearGradient5060"
       gradientUnits="userSpaceOnUse"
       gradientTransform="matrix(-2.774389,0,0,1.969706,112.7623,-872.8854)" />
    <linearGradient
       x1="80"
       y1="118"
       x2="80"
       y2="18"
       id="linearGradient3511"
       xlink:href="#linearGradient3707-319-631"
       gradientUnits="userSpaceOnUse" />
  </defs>
  <g
     transform="matrix(6.3040713e-2,0,0,3.3447814e-2,120.07065,112.04048)"
     id="g2546">
    <rect
       width="1339.6335"
       height="478.35718"
       x="-1559.2523"
       y="-150.69685"
       id="rect2512"
       style="opacity:0.40206185;fill:url(#linearGradient3472);fill-opacity:1;fill-rule:nonzero;stroke:none;stroke-width:1;marker:none;visibility:visible;display:inline;overflow:visible" />
    <path
       d="M -219.61876,-150.68038 C -219.61876,-150.68038 -219.61876,327.65041 -219.61876,327.65041 C -76.744594,328.55086 125.78146,220.48075 125.78138,88.454235 C 125.78138,-43.572302 -33.655436,-150.68036 -219.61876,-150.68038 L -219.61876,-150.68038 z"
       id="path2514"
       style="opacity:0.40206185;fill:url(#radialGradient3474);fill-opacity:1;fill-rule:nonzero;stroke:none;stroke-width:1;marker:none;visibility:visible;display:inline;overflow:visible" />
    <path
       d="M -1559.2523,-150.68038 C -1559.2523,-150.68038 -1559.2523,327.65041 -1559.2523,327.65041 C -1702.1265,328.55086 -1904.6525,220.48075 -1904.6525,88.454235 C -1904.6525,-43.572302 -1745.2157,-150.68036 -1559.2523,-150.68038 L -1559.2523,-150.68038 z"
       id="path2516"
       style="opacity:0.40206185;fill:url(#radialGradient3476);fill-opacity:1;fill-rule:nonzero;stroke:none;stroke-width:1;marker:none;visibility:visible;display:inline;overflow:visible" />
  </g>
  <rect
     width="118.99786"
     height="98.997871"
     rx="7"
     ry="7"
     x="4.5010695"
     y="19.501064"
     id="rect2551"
     style="fill:url(#radialGradient3464);fill-opacity:1;fill-rule:evenodd;stroke:url(#linearGradient3466);stroke-width:1.00213289;stroke-linecap:round;stroke-linejoin:round;stroke-miterlimit:4;stroke-dasharray:none;stroke-dashoffset:0;stroke-opacity:1" />
  <g
     transform="matrix(2.644522,0,0,2.6757723,0.5314696,2.1056967)"
     id="g3503">
    <path
       d="M 5.71875,7 L 23.59375,24.96875 L 10.5625,7 L 5.71875,7 z"
       id="path13905"
       style="opacity:0.07086612;fill:#eeeeec;fill-rule:evenodd;stroke:none;display:inline" />
    <path
       d="M 45.15625,7.46875 L 25.0625,24.8125 L 46,11.78125 L 46,9.15625 C 46,8.4558663 45.668987,7.8640444 45.15625,7.46875 z"
       id="path13907"
       style="opacity:0.07086612;fill:#eeeeec;fill-rule:evenodd;stroke:none;display:inline" />
    <path
       d="M 24.90625,25.375 L 46,35.6875 L 46,26.96875 L 24.90625,25.375 z"
       id="path13909"
       style="opacity:0.07086612;fill:#eeeeec;fill-rule:evenodd;stroke:none;display:inline" />
    <path
       d="M 24.5625,25.6875 L 30.03125,43 L 39.78125,43 L 24.5625,25.6875 z"
       id="path13911"
       style="opacity:0.07086612;fill:#eeeeec;fill-rule:evenodd;stroke:none;display:inline" />
    <path
       d="M 23.875,25.8125 C 23.463627,25.665381 9.9514594,37.061203 3.21875,42.78125 C 3.5037244,42.918789 3.8174992,43 4.15625,43 L 10.0625,43 L 23.875,25.8125 z"
       id="path13913"
       style="opacity:0.07086612;fill:#eeeeec;fill-rule:evenodd;stroke:none;display:inline" />
    <path
       d="M 2,22.65625 L 2,31.625 L 23,25.71875 L 2,22.65625 z"
       id="path13915"
       style="opacity:0.02078738;fill:#000000;fill-opacity:1;fill-rule:evenodd;stroke:none;stroke-width:1px;marker:none;visibility:visible;display:inline;overflow:visible;enable-background:accumulate" />
    <path
       d="M 2.03125,8.78125 C 2.009942,8.9036079 2,9.0276113 2,9.15625 L 2,17.0625 L 24.03125,25.21875 L 2.03125,8.78125 L 2.03125,8.78125 z"
       id="path13917"
       style="opacity:0.07086612;fill:#eeeeec;fill-rule:evenodd;stroke:none;display:inline" />
    <path
       d="M 21.9375,7 L 24.65625,24.5625 L 35.8125,7 L 21.9375,7 z"
       id="path13919"
       style="opacity:0.07086612;fill:#eeeeec;fill-rule:evenodd;stroke:none;display:inline" />
    <path
       d="M 24.28125,25.90625 L 20.78125,43 L 26.6875,43 L 24.28125,25.90625 z"
       id="path13921"
       style="opacity:0.07086612;fill:#eeeeec;fill-rule:evenodd;stroke:none;display:inline" />
    <path
       d="M 10.65625,7 L 23.96875,24.78125 L 18.625,7 L 10.65625,7 z"
       id="path13923"
       style="opacity:0.02078738;fill:#000000;fill-opacity:1;fill-rule:evenodd;stroke:none;display:inline" />
    <path
       d="M 41.1875,7 L 30.1875,19.75 L 44.34375,7.0625 C 44.181596,7.0239823 44.018018,7 43.84375,7 L 41.1875,7 z"
       id="path13925"
       style="opacity:0.02078738;fill:#ffffff;fill-opacity:1;fill-rule:evenodd;stroke:none;display:inline" />
    <path
       d="M 46,15.71875 L 24.96875,25.1875 L 46,22.6875 L 46,15.71875 z"
       id="path13927"
       style="opacity:0.02078738;fill:#000000;fill-opacity:1;fill-rule:evenodd;stroke:none;stroke-width:1px;marker:none;visibility:visible;display:inline;overflow:visible;enable-background:accumulate" />
    <path
       d="M 24.96875,25.8125 L 46,40.90625 C 46.000606,40.88509 46,40.86506 46,40.84375 L 46,37.59375 L 24.96875,25.8125 z"
       id="path13929"
       style="opacity:0.02078738;fill:#ffffff;fill-opacity:1;fill-rule:evenodd;stroke:none;display:inline" />
    <path
       d="M 24.0625,25.90625 C 23.927882,25.761819 16.769429,37.21187 13.53125,43 L 20.0625,43 L 24.0625,25.90625 L 24.0625,25.90625 z"
       id="path13931"
       style="opacity:0.02078738;fill:#000000;fill-opacity:1;fill-rule:evenodd;stroke:none;stroke-width:1px;marker:none;visibility:visible;display:inline;overflow:visible;enable-background:accumulate" />
    <path
       d="M 23.25,25.875 L 2,33.0625 L 2,40.65625 L 23.25,25.875 z"
       id="path13933"
       style="opacity:0.02078738;fill:#ffffff;fill-opacity:1;fill-rule:evenodd;stroke:none;display:inline" />
    <path
       d="M 2,17.53125 L 2,20.71875 L 23.65625,25.53125 L 2,17.53125 z"
       id="path13935"
       style="opacity:0.02078738;fill:#ffffff;fill-opacity:1;fill-rule:evenodd;stroke:none;display:inline" />
    <path
       d="M 15.34375,7 L 23.71875,24.40625 L 16.78125,7 L 15.34375,7 z"
       id="path13937"
       style="opacity:0.07086612;fill:#ffffff;fill-opacity:1;fill-rule:evenodd;stroke:none;display:inline" />
    <path
       d="M 46,18.1875 L 25.59375,25.15625 L 46,20.21875 L 46,18.1875 z"
       id="path13939"
       style="opacity:0.11083972;fill:#ffffff;fill-opacity:1;fill-rule:evenodd;stroke:none;display:inline" />
    <path
       d="M 23.71875,25.46875 L 2,27 L 2,29.6875 L 23.71875,25.46875 z"
       id="path13941"
       style="opacity:0.12824432;fill:#ffffff;fill-opacity:1;fill-rule:evenodd;stroke:none;display:inline" />
    <path
       d="M 19.21875,30.5625 L 5.625,43 L 8.09375,43 L 19.21875,30.5625 L 19.21875,30.5625 z"
       id="path13943"
       style="opacity:0.06961831;fill:#ffffff;fill-opacity:1;fill-rule:evenodd;stroke:none;display:inline" />
    <path
       d="M 29.84375,29.8125 L 44,43 C 45.125099,42.9194 46,41.990081 46,40.84375 L 46,40.71875 L 29.84375,29.8125 z"
       id="path13945"
       style="opacity:0.09251906;fill:#ffffff;fill-opacity:1;fill-rule:evenodd;stroke:none;display:inline" />
    <path
       d="M 27.21875,26.4375 L 46,35 L 46,31.53125 L 27.21875,26.4375 z"
       id="path13947"
       style="opacity:0.07086612;fill:#ffffff;fill-opacity:1;fill-rule:evenodd;stroke:none;display:inline" />
    <path
       d="M 2.03125,8.71875 C 2.0024997,8.859964 2,9.0062984 2,9.15625 L 2,10.78125 L 18.6875,21.6875 L 2.03125,8.71875 z"
       id="path13949"
       style="opacity:0.06687024;fill:#ffffff;fill-opacity:1;fill-rule:evenodd;stroke:none;display:inline" />
    <path
       d="M 33.4375,7 L 25.15625,23.625 L 35.90625,7 L 33.4375,7 z"
       id="path13951"
       style="opacity:0.07328246;fill:#ffffff;fill-opacity:1;fill-rule:evenodd;stroke:none;display:inline" />
    <path
       d="M 24.28125,25.90625 L 25,43 L 26.6875,43 L 24.28125,25.90625 z"
       id="path9905"
       style="opacity:0.10076336;fill:#eeeeec;fill-rule:evenodd;stroke:none;display:inline" />
  </g>
  <rect
     width="116.99626"
     height="96.996269"
     rx="6"
     ry="6"
     x="5.5018659"
     y="20.501867"
     id="rect2556"
     style="opacity:0.4;fill:none;stroke:url(#linearGradient3435);stroke-width:1.00373149;stroke-linecap:round;stroke-linejoin:round;stroke-miterlimit:4;stroke-dasharray:none;stroke-dashoffset:0;stroke-opacity:1" />
  <path
     d="M 11.361417,20.836105 C 8.3008703,20.836105 5.8205138,23.504187 5.8205138,26.796369 L 5.8205138,70.391452 C 5.8275218,70.758204 5.9770457,71.105027 6.2327564,71.34773 C 6.4884659,71.590423 6.8269927,71.706827 7.1661617,71.668651 L 121.15046,52.255216 C 121.73679,52.155758 122.17129,51.616458 122.17948,50.978017 L 122.17948,26.796369 C 122.17948,23.504187 119.69913,20.836105 116.63858,20.836105 L 11.361417,20.836105 L 11.361417,20.836105 z"
     id="path3333"
     style="opacity:0.2;fill:url(#linearGradient3432);fill-opacity:1;fill-rule:evenodd;stroke:none" />
  <path
     d="M 64,32 C 59.575691,32 55.998671,35.584068 56,40 C 55.998996,43.331917 58.094569,46.083063 61,47.28125 L 61,50 L 49,50 C 48.478374,50 48,50.454903 48,51 L 48,53.59375 L 61,55 L 61,92 C 61,93.027408 59.285545,93.048759 58.3125,93.15625 C 56.886924,93.147451 56.020208,92.783635 54.65625,92.40625 C 51.575986,91.505534 48.635401,90.257221 45.8125,88.75 C 44.623974,88.091066 43.46375,87.448702 42.40625,86.59375 C 41.950452,86.20489 41.420307,85.642659 41.46875,85 C 41.530315,84.513506 41.776683,83.995252 42.3125,83.90625 C 42.795428,83.829772 43.229218,84.0888 43.65625,84.25 C 44.024373,84.408746 44.277634,83.962239 44.21875,83.65625 C 44.159511,82.850148 43.886361,82.104009 43.46875,81.40625 C 42.599889,79.977089 41.262786,78.914045 39.875,78 C 38.393297,77.053762 36.813717,76.013394 35.875,74.5 C 35.688258,74.220301 35.480868,73.757539 35.0625,73.90625 C 34.480901,74.094892 34.15986,74.664887 33.875,75.15625 C 33.073517,76.681486 32.673859,78.326811 32.3125,80 C 32.01544,81.331279 31.958737,82.73727 32.0625,84.09375 C 32.983511,94.489007 35.10253,86.12994 40.21875,89.59375 C 47.498282,95.701364 56.750991,97.851353 63.90625,104 C 71.405665,98.482253 79.779072,94.317963 87.78125,89.59375 C 93.010657,85.630659 94.907252,95.129956 95.9375,84.09375 C 96.041268,82.737274 95.98455,81.33128 95.6875,80 C 95.326137,78.32681 94.926482,76.681484 94.125,75.15625 C 93.84014,74.664889 93.519102,74.094899 92.9375,73.90625 C 92.519139,73.757532 92.31173,74.220301 92.125,74.5 C 91.186278,76.013394 89.606701,77.053763 88.125,78 C 86.73721,78.914044 85.400112,79.977086 84.53125,81.40625 C 84.113637,82.104012 83.840499,82.850146 83.78125,83.65625 C 83.722361,83.962241 83.975634,84.408757 84.34375,84.25 C 84.770781,84.088799 85.204572,83.829764 85.6875,83.90625 C 86.223317,83.995265 86.469678,84.513507 86.53125,85 C 86.579705,85.642658 86.049549,86.204886 85.59375,86.59375 C 84.536252,87.448706 83.376026,88.091067 82.1875,88.75 C 79.364598,90.25722 76.424014,91.505533 73.34375,92.40625 C 71.979791,92.783636 71.113078,93.147436 69.6875,93.15625 C 68.462671,93.374575 67,92.709597 67,92 L 67,55 C 70.555981,54.039758 78.038927,57.374555 80,53.59375 L 80,51 C 80,50.43524 79.548421,50 79,50 L 67,50 L 67,47.28125 C 69.905425,46.083062 72.001004,43.331917 72,40 C 72.001331,35.584068 68.424293,32 64,32 z M 63.84375,35.90625 C 65.991467,35.906249 67.750648,37.606344 67.75,39.75 C 67.750642,41.893659 65.991468,43.65625 63.84375,43.65625 C 61.696024,43.656249 59.905604,41.893662 59.90625,39.75 C 59.905605,37.606344 61.696025,35.90625 63.84375,35.90625 z"
     id="path3489"
     style="fill:url(#linearGradient3511);fill-opacity:1;fill-rule:nonzero;stroke:none" />
  <path
     d="M 64,33 C 59.575691,33 55.998671,36.584068 56,41 C 55.998996,44.331917 58.094569,47.083063 61,48.28125 L 61,51 L 49,51 C 48.468795,51 48,51.43524 48,52 L 48,55 C 48,55.564761 48.434363,56 49,56 L 61,56 L 61,93 C 61,94.027408 59.285545,94.048759 58.3125,94.15625 C 56.886924,94.147451 56.020208,93.783635 54.65625,93.40625 C 51.575986,92.505534 48.635401,91.257221 45.8125,89.75 C 44.623974,89.091066 43.46375,88.448702 42.40625,87.59375 C 41.950452,87.20489 41.420307,86.642659 41.46875,86 C 41.530315,85.513506 41.776683,84.995252 42.3125,84.90625 C 42.795428,84.829772 43.229218,85.0888 43.65625,85.25 C 44.024373,85.408746 44.277634,84.962239 44.21875,84.65625 C 44.159511,83.850148 43.886361,83.104009 43.46875,82.40625 C 42.599889,80.977089 41.262786,79.914045 39.875,79 C 38.393297,78.053762 36.813717,77.013394 35.875,75.5 C 35.688258,75.220301 35.480868,74.757539 35.0625,74.90625 C 34.480901,75.094892 34.15986,75.664887 33.875,76.15625 C 33.073517,77.681486 32.673859,79.326811 32.3125,81 C 32.01544,82.331279 31.958737,83.73727 32.0625,85.09375 C 32.169926,86.45101 32.262823,87.82627 32.8125,89.09375 C 33.15867,89.926688 33.768115,90.59821 34.375,91.25 C 34.762249,90.840557 35.166326,90.401064 35.5625,90 C 36.075902,89.484596 36.717361,89.149965 37.46875,89.25 C 38.491432,89.381626 39.415069,90.001344 40.21875,90.59375 C 41.350789,91.474053 42.409084,92.395281 43.5625,93.25 C 45.387628,94.644797 47.400721,95.665876 49.46875,96.65625 C 51.191708,97.456371 52.962028,98.255541 54.75,98.90625 C 55.070194,99.046091 55.424009,99.039744 55.75,99.15625 C 58.967937,100.49456 61.678834,102.0522 63.90625,104.84375 C 63.909454,104.88207 63.903046,104.96349 63.90625,105 C 63.931879,104.96691 63.974292,104.939 64,104.90625 C 64.025628,104.939 64.068202,104.96691 64.09375,105 C 64.110567,104.92291 64.077197,104.82742 64.09375,104.75 C 66.314185,101.99083 69.05158,100.48645 72.25,99.15625 C 72.575994,99.039745 72.929804,99.046089 73.25,98.90625 C 75.037973,98.255543 76.808293,97.456369 78.53125,96.65625 C 80.599282,95.665878 82.612371,94.644799 84.4375,93.25 C 85.590914,92.395279 86.649211,91.474056 87.78125,90.59375 C 88.584931,90.001341 89.50857,89.381635 90.53125,89.25 C 91.282639,89.149972 91.924097,89.484587 92.4375,90 C 92.833672,90.401063 93.237748,90.840558 93.625,91.25 C 94.231886,90.598209 94.841328,89.926684 95.1875,89.09375 C 95.73718,87.826274 95.830079,86.451006 95.9375,85.09375 C 96.041268,83.737274 95.98455,82.33128 95.6875,81 C 95.326137,79.32681 94.926482,77.681484 94.125,76.15625 C 93.84014,75.664889 93.519102,75.094899 92.9375,74.90625 C 92.519139,74.757532 92.31173,75.220301 92.125,75.5 C 91.186278,77.013394 89.606701,78.053763 88.125,79 C 86.73721,79.914044 85.400112,80.977086 84.53125,82.40625 C 84.113637,83.104012 83.840499,83.850146 83.78125,84.65625 C 83.722361,84.962241 83.975634,85.408757 84.34375,85.25 C 84.770781,85.088799 85.204572,84.829764 85.6875,84.90625 C 86.223317,84.995265 86.469678,85.513507 86.53125,86 C 86.579705,86.642658 86.049549,87.204886 85.59375,87.59375 C 84.536252,88.448706 83.376026,89.091067 82.1875,89.75 C 79.364598,91.25722 76.424014,92.505533 73.34375,93.40625 C 71.979791,93.783636 71.113078,94.147436 69.6875,94.15625 C 68.462671,94.374575 67,93.709597 67,93 L 67,56 L 79,56 C 79.46234,56 80,55.599193 80,55 L 80,52 C 80,51.418023 79.531205,51 79,51 L 67,51 L 67,48.28125 C 69.905425,47.083062 72.001004,44.331917 72,41 C 72.001331,36.584068 68.424293,33 64,33 z M 63.84375,36.90625 C 65.991467,36.906249 67.750648,38.606344 67.75,40.75 C 67.750642,42.893659 65.991468,44.65625 63.84375,44.65625 C 61.696024,44.656249 59.905604,42.893662 59.90625,40.75 C 59.905605,38.606344 61.696025,36.90625 63.84375,36.90625 z"
     id="path1919"
     style="fill:url(#linearGradient3428);fill-opacity:1;fill-rule:nonzero;stroke:none" />
</svg>
