<?xml version="1.0" encoding="UTF-8" standalone="no"?>
<!-- Created with Inkscape (http://www.inkscape.org/) -->
<svg
   xmlns:svg="http://www.w3.org/2000/svg"
   xmlns="http://www.w3.org/2000/svg"
   xmlns:xlink="http://www.w3.org/1999/xlink"
   version="1.0"
   width="64"
   height="64"
   id="svg3508">
  <defs
     id="defs3510">
    <radialGradient
       cx="605.71429"
       cy="486.64789"
       r="117.14286"
       fx="605.71429"
       fy="486.64789"
       id="radialGradient2492"
       xlink:href="#linearGradient5060"
       gradientUnits="userSpaceOnUse"
       gradientTransform="matrix(-2.774389,0,0,1.969706,112.7623,-872.8854)" />
    <linearGradient
       id="linearGradient5060">
      <stop
         id="stop5062"
         style="stop-color:#000000;stop-opacity:1"
         offset="0" />
      <stop
         id="stop5064"
         style="stop-color:#000000;stop-opacity:0"
         offset="1" />
    </linearGradient>
    <radialGradient
       cx="605.71429"
       cy="486.64789"
       r="117.14286"
       fx="605.71429"
       fy="486.64789"
       id="radialGradient2490"
       xlink:href="#linearGradient5060"
       gradientUnits="userSpaceOnUse"
       gradientTransform="matrix(2.774389,0,0,1.969706,-1891.633,-872.8854)" />
    <linearGradient
       id="linearGradient5048">
      <stop
         id="stop5050"
         style="stop-color:#000000;stop-opacity:0"
         offset="0" />
      <stop
         id="stop5056"
         style="stop-color:#000000;stop-opacity:1"
         offset="0.5" />
      <stop
         id="stop5052"
         style="stop-color:#000000;stop-opacity:0"
         offset="1" />
    </linearGradient>
    <linearGradient
       x1="302.85715"
       y1="366.64789"
       x2="302.85715"
       y2="609.50507"
       id="linearGradient2488"
       xlink:href="#linearGradient5048"
       gradientUnits="userSpaceOnUse"
       gradientTransform="matrix(2.774389,0,0,1.969706,-1892.179,-872.8854)" />
    <linearGradient
       id="linearGradient3332-412-419-652-471-84-177-907-6-893-113-271-332-430">
      <stop
         id="stop6305"
         style="stop-color:#09387d;stop-opacity:1"
         offset="0" />
      <stop
         id="stop6307"
         style="stop-color:#5a82b7;stop-opacity:1"
         offset="1" />
    </linearGradient>
    <linearGradient
       x1="10.014208"
       y1="44.960102"
       x2="10.014208"
       y2="2.8764627"
       id="linearGradient2543"
       xlink:href="#linearGradient3332-412-419-652-471-84-177-907-6-893-113-271-332-430"
       gradientUnits="userSpaceOnUse"
       gradientTransform="matrix(1.2979404,0,0,1.2209765,0.8494547,5.1815944)" />
    <linearGradient
       id="linearGradient3242-593-605-251-305-611-783-329-246-200-38-179-24-325">
      <stop
         id="stop6295"
         style="stop-color:#9ba7db;stop-opacity:1"
         offset="0" />
      <stop
         id="stop6297"
         style="stop-color:#6f99cd;stop-opacity:1"
         offset="0.26238" />
      <stop
         id="stop6299"
         style="stop-color:#4683b0;stop-opacity:1"
         offset="0.66093999" />
      <stop
         id="stop6301"
         style="stop-color:#2c7387;stop-opacity:1"
         offset="1" />
    </linearGradient>
    <radialGradient
       cx="1.080768"
       cy="10.165854"
       r="23"
       fx="1.080768"
       fy="10.165854"
       id="radialGradient2541"
       xlink:href="#linearGradient3242-593-605-251-305-611-783-329-246-200-38-179-24-325"
       gradientUnits="userSpaceOnUse"
       gradientTransform="matrix(1.2204995e-7,1.860664,-3.0316171,8.4055669e-8,62.818972,14.241464)" />
    <linearGradient
       id="linearGradient2238">
      <stop
         id="stop2240"
         style="stop-color:#ffffff;stop-opacity:1"
         offset="0" />
      <stop
         id="stop2242"
         style="stop-color:#ffffff;stop-opacity:0"
         offset="1" />
    </linearGradient>
    <linearGradient
       x1="12.578789"
       y1="-7.8073711"
       x2="12.578789"
       y2="41.827358"
       id="linearGradient2512"
       xlink:href="#linearGradient2238"
       gradientUnits="userSpaceOnUse"
       gradientTransform="matrix(1.3099699,0,0,1.2296537,0.5591292,6.2253186)" />
    <linearGradient
       id="linearGradient8265-821-176-38-919-66-249">
      <stop
         id="stop2687"
         style="stop-color:#ffffff;stop-opacity:1"
         offset="0" />
      <stop
         id="stop2689"
         style="stop-color:#ffffff;stop-opacity:0"
         offset="1" />
    </linearGradient>
    <linearGradient
       x1="16.626165"
       y1="15.298182"
       x2="20.054544"
       y2="24.627615"
       id="linearGradient2509"
       xlink:href="#linearGradient8265-821-176-38-919-66-249"
       gradientUnits="userSpaceOnUse"
       gradientTransform="matrix(1.3061224,0,0,1.3934395,0.6530611,1.6829076)" />
    <linearGradient
       id="linearGradient3202">
      <stop
         id="stop3204"
         style="stop-color:#ffffff;stop-opacity:1"
         offset="0" />
      <stop
         id="stop3206"
         style="stop-color:#ced3d6;stop-opacity:1"
         offset="1" />
    </linearGradient>
    <linearGradient
       x1="116.29638"
       y1="32.374962"
       x2="116.29638"
       y2="226.17993"
       id="linearGradient3501"
       xlink:href="#linearGradient3202"
       gradientUnits="userSpaceOnUse"
       gradientTransform="matrix(0.1901552,0,0,0.1960975,7.8681001,9.651347)" />
  </defs>
  <g
     id="layer1">
    <g
       transform="matrix(3.1520357e-2,0,0,1.6723728e-2,60.035049,55.520298)"
       id="g2546">
      <rect
         width="1339.6335"
         height="478.35718"
         x="-1559.2523"
         y="-150.69685"
         id="rect2512"
         style="opacity:0.40206185;fill:url(#linearGradient2488);fill-opacity:1;fill-rule:nonzero;stroke:none;stroke-width:1;stroke-linecap:round;stroke-linejoin:miter;marker:none;marker-start:none;marker-mid:none;marker-end:none;stroke-miterlimit:4;stroke-dasharray:none;stroke-dashoffset:0;stroke-opacity:1;visibility:visible;display:inline;overflow:visible" />
      <path
         d="M -219.61876,-150.68038 C -219.61876,-150.68038 -219.61876,327.65041 -219.61876,327.65041 C -76.744594,328.55086 125.78146,220.48075 125.78138,88.454235 C 125.78138,-43.572302 -33.655436,-150.68036 -219.61876,-150.68038 z"
         id="path2514"
         style="opacity:0.40206185;fill:url(#radialGradient2490);fill-opacity:1;fill-rule:nonzero;stroke:none;stroke-width:1;stroke-linecap:round;stroke-linejoin:miter;marker:none;marker-start:none;marker-mid:none;marker-end:none;stroke-miterlimit:4;stroke-dasharray:none;stroke-dashoffset:0;stroke-opacity:1;visibility:visible;display:inline;overflow:visible" />
      <path
         d="M -1559.2523,-150.68038 C -1559.2523,-150.68038 -1559.2523,327.65041 -1559.2523,327.65041 C -1702.1265,328.55086 -1904.6525,220.48075 -1904.6525,88.454235 C -1904.6525,-43.572302 -1745.2157,-150.68036 -1559.2523,-150.68038 z"
         id="path2516"
         style="opacity:0.40206185;fill:url(#radialGradient2492);fill-opacity:1;fill-rule:nonzero;stroke:none;stroke-width:1;stroke-linecap:round;stroke-linejoin:miter;marker:none;marker-start:none;marker-mid:none;marker-end:none;stroke-miterlimit:4;stroke-dasharray:none;stroke-dashoffset:0;stroke-opacity:1;visibility:visible;display:inline;overflow:visible" />
    </g>
    <rect
       width="61"
       height="50"
       rx="3.4106524"
       ry="3.4106524"
       x="1.5"
       y="9.5"
       id="rect2551"
       style="fill:url(#radialGradient2541);fill-opacity:1;fill-rule:evenodd;stroke:url(#linearGradient2543);stroke-width:1;stroke-linecap:round;stroke-linejoin:round;stroke-miterlimit:4;stroke-dasharray:none;stroke-dashoffset:0;stroke-opacity:1" />
    <g
       transform="matrix(1.3556197,0,0,1.3514292,-0.5348737,0.7142709)"
       id="g3503"
       style="stroke-width:0.74351883;stroke-miterlimit:4;stroke-dasharray:none">
      <path
         d="M 5.71875,7 L 23.59375,24.96875 L 10.5625,7 L 5.71875,7 z"
         id="path13905"
         style="opacity:0.07086612;fill:#eeeeec;fill-rule:evenodd;stroke:none;stroke-width:0.74351883;stroke-linecap:butt;stroke-linejoin:miter;stroke-miterlimit:4;stroke-dasharray:none;stroke-opacity:1;display:inline" />
      <path
         d="M 45.15625,7.46875 L 25.0625,24.8125 L 46,11.78125 L 46,9.15625 C 46,8.4558663 45.668987,7.8640444 45.15625,7.46875 z"
         id="path13907"
         style="opacity:0.07086612;fill:#eeeeec;fill-rule:evenodd;stroke:none;stroke-width:0.74351883;stroke-linecap:butt;stroke-linejoin:miter;stroke-miterlimit:4;stroke-dasharray:none;stroke-opacity:1;display:inline" />
      <path
         d="M 24.90625,25.375 L 46,35.6875 L 46,26.96875 L 24.90625,25.375 z"
         id="path13909"
         style="opacity:0.07086612;fill:#eeeeec;fill-rule:evenodd;stroke:none;stroke-width:0.74351883;stroke-linecap:butt;stroke-linejoin:miter;stroke-miterlimit:4;stroke-dasharray:none;stroke-opacity:1;display:inline" />
      <path
         d="M 24.5625,25.6875 L 30.03125,43 L 39.78125,43 L 24.5625,25.6875 z"
         id="path13911"
         style="opacity:0.07086612;fill:#eeeeec;fill-rule:evenodd;stroke:none;stroke-width:0.74351883;stroke-linecap:butt;stroke-linejoin:miter;stroke-miterlimit:4;stroke-dasharray:none;stroke-opacity:1;display:inline" />
      <path
         d="M 23.875,25.8125 C 23.463627,25.665381 9.9514594,37.061203 3.21875,42.78125 C 3.5037244,42.918789 3.8174992,43 4.15625,43 L 10.0625,43 L 23.875,25.8125 z"
         id="path13913"
         style="opacity:0.07086612;fill:#eeeeec;fill-rule:evenodd;stroke:none;stroke-width:0.74351883;stroke-linecap:butt;stroke-linejoin:miter;stroke-miterlimit:4;stroke-dasharray:none;stroke-opacity:1;display:inline" />
      <path
         d="M 2,22.65625 L 2,31.625 L 23,25.71875 L 2,22.65625 z"
         id="path13915"
         style="opacity:0.02078738;fill:#000000;fill-opacity:1;fill-rule:evenodd;stroke:none;stroke-width:0.74351883;stroke-linecap:butt;stroke-linejoin:miter;marker:none;marker-start:none;marker-mid:none;marker-end:none;stroke-miterlimit:4;stroke-dasharray:none;stroke-dashoffset:0;stroke-opacity:1;visibility:visible;display:inline;overflow:visible;enable-background:accumulate" />
      <path
         d="M 2.03125,8.78125 C 2.009942,8.9036079 2,9.0276113 2,9.15625 L 2,17.0625 L 24.03125,25.21875 L 2.03125,8.78125 z"
         id="path13917"
         style="opacity:0.07086612;fill:#eeeeec;fill-rule:evenodd;stroke:none;stroke-width:0.74351883;stroke-linecap:butt;stroke-linejoin:miter;stroke-miterlimit:4;stroke-dasharray:none;stroke-opacity:1;display:inline" />
      <path
         d="M 21.9375,7 L 24.65625,24.5625 L 35.8125,7 L 21.9375,7 z"
         id="path13919"
         style="opacity:0.07086612;fill:#eeeeec;fill-rule:evenodd;stroke:none;stroke-width:0.74351883;stroke-linecap:butt;stroke-linejoin:miter;stroke-miterlimit:4;stroke-dasharray:none;stroke-opacity:1;display:inline" />
      <path
         d="M 24.28125,25.90625 L 20.78125,43 L 26.6875,43 L 24.28125,25.90625 z"
         id="path13921"
         style="opacity:0.07086612;fill:#eeeeec;fill-rule:evenodd;stroke:none;stroke-width:0.74351883;stroke-linecap:butt;stroke-linejoin:miter;stroke-miterlimit:4;stroke-dasharray:none;stroke-opacity:1;display:inline" />
      <path
         d="M 10.65625,7 L 23.96875,24.78125 L 18.625,7 L 10.65625,7 z"
         id="path13923"
         style="opacity:0.02078738;fill:#000000;fill-opacity:1;fill-rule:evenodd;stroke:none;stroke-width:0.74351883;stroke-linecap:butt;stroke-linejoin:miter;stroke-miterlimit:4;stroke-dasharray:none;stroke-opacity:1;display:inline" />
      <path
         d="M 41.1875,7 L 30.1875,19.75 L 44.34375,7.0625 C 44.181596,7.0239823 44.018018,7 43.84375,7 L 41.1875,7 z"
         id="path13925"
         style="opacity:0.02078738;fill:#ffffff;fill-opacity:1;fill-rule:evenodd;stroke:none;stroke-width:0.74351883;stroke-linecap:butt;stroke-linejoin:miter;stroke-miterlimit:4;stroke-dasharray:none;stroke-opacity:1;display:inline" />
      <path
         d="M 46,15.71875 L 24.96875,25.1875 L 46,22.6875 L 46,15.71875 z"
         id="path13927"
         style="opacity:0.02078738;fill:#000000;fill-opacity:1;fill-rule:evenodd;stroke:none;stroke-width:0.74351883;stroke-linecap:butt;stroke-linejoin:miter;marker:none;marker-start:none;marker-mid:none;marker-end:none;stroke-miterlimit:4;stroke-dasharray:none;stroke-dashoffset:0;stroke-opacity:1;visibility:visible;display:inline;overflow:visible;enable-background:accumulate" />
      <path
         d="M 24.96875,25.8125 L 46,40.90625 C 46.000606,40.885089 46,40.865063 46,40.84375 L 46,37.59375 L 24.96875,25.8125 z"
         id="path13929"
         style="opacity:0.02078738;fill:#ffffff;fill-opacity:1;fill-rule:evenodd;stroke:none;stroke-width:0.74351883;stroke-linecap:butt;stroke-linejoin:miter;stroke-miterlimit:4;stroke-dasharray:none;stroke-opacity:1;display:inline" />
      <path
         d="M 24.0625,25.90625 C 23.927882,25.761819 16.769429,37.21187 13.53125,43 L 20.0625,43 L 24.0625,25.90625 z"
         id="path13931"
         style="opacity:0.02078738;fill:#000000;fill-opacity:1;fill-rule:evenodd;stroke:none;stroke-width:0.74351883;stroke-linecap:butt;stroke-linejoin:miter;marker:none;marker-start:none;marker-mid:none;marker-end:none;stroke-miterlimit:4;stroke-dasharray:none;stroke-dashoffset:0;stroke-opacity:1;visibility:visible;display:inline;overflow:visible;enable-background:accumulate" />
      <path
         d="M 23.25,25.875 L 2,33.0625 L 2,40.65625 L 23.25,25.875 z"
         id="path13933"
         style="opacity:0.02078738;fill:#ffffff;fill-opacity:1;fill-rule:evenodd;stroke:none;stroke-width:0.74351883;stroke-linecap:butt;stroke-linejoin:miter;stroke-miterlimit:4;stroke-dasharray:none;stroke-opacity:1;display:inline" />
      <path
         d="M 2,17.53125 L 2,20.71875 L 23.65625,25.53125 L 2,17.53125 z"
         id="path13935"
         style="opacity:0.02078738;fill:#ffffff;fill-opacity:1;fill-rule:evenodd;stroke:none;stroke-width:0.74351883;stroke-linecap:butt;stroke-linejoin:miter;stroke-miterlimit:4;stroke-dasharray:none;stroke-opacity:1;display:inline" />
      <path
         d="M 15.34375,7 L 23.71875,24.40625 L 16.78125,7 L 15.34375,7 z"
         id="path13937"
         style="opacity:0.07086612;fill:#ffffff;fill-opacity:1;fill-rule:evenodd;stroke:none;stroke-width:0.74351883;stroke-linecap:butt;stroke-linejoin:miter;stroke-miterlimit:4;stroke-dasharray:none;stroke-opacity:1;display:inline" />
      <path
         d="M 46,18.1875 L 25.59375,25.15625 L 46,20.21875 L 46,18.1875 z"
         id="path13939"
         style="opacity:0.11083972;fill:#ffffff;fill-opacity:1;fill-rule:evenodd;stroke:none;stroke-width:0.74351883;stroke-linecap:butt;stroke-linejoin:miter;stroke-miterlimit:4;stroke-dasharray:none;stroke-opacity:1;display:inline" />
      <path
         d="M 23.71875,25.46875 L 2,27 L 2,29.6875 L 23.71875,25.46875 z"
         id="path13941"
         style="opacity:0.12824432;fill:#ffffff;fill-opacity:1;fill-rule:evenodd;stroke:none;stroke-width:0.74351883;stroke-linecap:butt;stroke-linejoin:miter;stroke-miterlimit:4;stroke-dasharray:none;stroke-opacity:1;display:inline" />
      <path
         d="M 19.21875,30.5625 L 5.625,43 L 8.09375,43 L 19.21875,30.5625 z"
         id="path13943"
         style="opacity:0.06961831;fill:#ffffff;fill-opacity:1;fill-rule:evenodd;stroke:none;stroke-width:0.74351883;stroke-linecap:butt;stroke-linejoin:miter;stroke-miterlimit:4;stroke-dasharray:none;stroke-opacity:1;display:inline" />
      <path
         d="M 29.84375,29.8125 L 44,43 C 45.125099,42.9194 46,41.990081 46,40.84375 L 46,40.71875 L 29.84375,29.8125 z"
         id="path13945"
         style="opacity:0.09251906;fill:#ffffff;fill-opacity:1;fill-rule:evenodd;stroke:none;stroke-width:0.74351883;stroke-linecap:butt;stroke-linejoin:miter;stroke-miterlimit:4;stroke-dasharray:none;stroke-opacity:1;display:inline" />
      <path
         d="M 27.21875,26.4375 L 46,35 L 46,31.53125 L 27.21875,26.4375 z"
         id="path13947"
         style="opacity:0.07086612;fill:#ffffff;fill-opacity:1;fill-rule:evenodd;stroke:none;stroke-width:0.74351883;stroke-linecap:butt;stroke-linejoin:miter;stroke-miterlimit:4;stroke-dasharray:none;stroke-opacity:1;display:inline" />
      <path
         d="M 2.03125,8.71875 C 2.0024997,8.859964 2,9.0062984 2,9.15625 L 2,10.78125 L 18.6875,21.6875 L 2.03125,8.71875 z"
         id="path13949"
         style="opacity:0.06687024;fill:#ffffff;fill-opacity:1;fill-rule:evenodd;stroke:none;stroke-width:0.74351883;stroke-linecap:butt;stroke-linejoin:miter;stroke-miterlimit:4;stroke-dasharray:none;stroke-opacity:1;display:inline" />
      <path
         d="M 33.4375,7 L 25.15625,23.625 L 35.90625,7 L 33.4375,7 z"
         id="path13951"
         style="opacity:0.07328246;fill:#ffffff;fill-opacity:1;fill-rule:evenodd;stroke:none;stroke-width:0.74351883;stroke-linecap:butt;stroke-linejoin:miter;stroke-miterlimit:4;stroke-dasharray:none;stroke-opacity:1;display:inline" />
      <path
         d="M 24.28125,25.90625 L 25,43 L 26.6875,43 L 24.28125,25.90625 z"
         id="path9905"
         style="opacity:0.10076336;fill:#eeeeec;fill-rule:evenodd;stroke:none;stroke-width:0.74351883;stroke-linecap:butt;stroke-linejoin:miter;stroke-miterlimit:4;stroke-dasharray:none;stroke-opacity:1;display:inline" />
    </g>
    <rect
       width="59"
       height="48"
       rx="2.5336254"
       ry="2.5336254"
       x="2.5"
       y="10.5"
       id="rect2556"
       style="opacity:0.4;fill:none;fill-opacity:1;fill-rule:evenodd;stroke:url(#linearGradient2512);stroke-width:1;stroke-linecap:round;stroke-linejoin:round;stroke-miterlimit:4;stroke-dasharray:none;stroke-dashoffset:0;stroke-opacity:1" />
    <path
       d="M 4.8571428,9.9999999 C 3.2789851,9.9999999 2,11.364489 2,13.048148 L 2,35.343181 C 2.0036202,35.530743 2.0807152,35.708113 2.2125711,35.832233 C 2.3444266,35.956355 2.5189865,36.015879 2.6938773,35.996356 L 61.469387,26.068101 C 61.771726,26.01723 61.995773,25.741431 62,25.414924 L 62,13.048148 C 62,11.364489 60.721015,9.9999999 59.142856,9.9999999 L 4.8571428,9.9999999 z"
       id="path3333"
       style="opacity:0.2;fill:url(#linearGradient2509);fill-opacity:1;fill-rule:evenodd;stroke:none;stroke-width:1;stroke-linecap:round;stroke-linejoin:round;stroke-miterlimit:4;stroke-dasharray:none;stroke-dashoffset:0;stroke-opacity:1" />
    <path
       d="M 32,15 C 29.649586,15 27.749293,16.888119 27.75,19.21875 C 27.749451,21.029847 29.38423,22.525749 31,23.125 C 31.002012,23.416642 30.998153,23.70836 31,24 L 23.46875,24 C 23.207683,24 23,24.207682 23,24.46875 L 23,25.53125 C 23,25.792317 23.207682,26 23.46875,26 L 31,26 C 31.034499,32.81187 31.042513,39.625459 31,46.4375 C 31.010681,46.605553 30.449414,46.775731 30.3125,46.875 C 29.924921,47.16266 29.476269,47.267845 29,47.28125 C 28.24266,47.2766 27.755852,47.074175 27.03125,46.875 C 25.39486,46.399621 23.843416,45.732978 22.34375,44.9375 C 21.712347,44.58973 21.093046,44.263725 20.53125,43.8125 C 20.289106,43.607268 20.005515,43.307931 20.03125,42.96875 C 20.063959,42.711991 20.184098,42.453224 20.46875,42.40625 C 20.725304,42.365883 20.96064,42.477428 21.1875,42.5625 C 21.383066,42.646288 21.531282,42.442744 21.5,42.28125 C 21.468525,41.855805 21.315606,41.462012 21.09375,41.09375 C 20.632167,40.339468 19.924762,39.763663 19.1875,39.28125 C 18.400345,38.781846 17.561192,38.236236 17.0625,37.4375 C 16.9633,37.28988 16.847257,37.046515 16.625,37.125 C 16.316026,37.224567 16.151332,37.52192 16,37.78125 C 15.574211,38.586236 15.348221,39.460678 15.15625,40.34375 C 14.998436,41.046371 14.976126,41.78408 15.03125,42.5 C 15.088318,43.216329 15.145482,43.924802 15.4375,44.59375 C 15.621403,45.033354 15.958842,45.406 16.28125,45.75 C 16.486979,45.533904 16.664533,45.305423 16.875,45.09375 C 17.147745,44.821733 17.507074,44.634704 17.90625,44.6875 C 18.449549,44.756974 18.948045,45.093591 19.375,45.40625 C 19.976395,45.870855 20.543498,46.361398 21.15625,46.8125 C 22.125849,47.548643 23.182609,48.071053 24.28125,48.59375 C 25.196571,49.016035 26.14389,49.43782 27.09375,49.78125 C 27.263855,49.855056 27.451817,49.844756 27.625,49.90625 C 29.334529,50.61258 30.785436,51.432932 31.96875,52.90625 C 31.970395,52.926472 31.967001,52.980734 31.96875,53 C 31.982324,52.982535 31.986347,52.986028 32,52.96875 C 32.013653,52.986027 32.017675,52.982535 32.03125,53 C 32.040132,52.95931 32.022525,52.915859 32.03125,52.875 C 33.210858,51.41877 34.675841,50.608295 36.375,49.90625 C 36.548184,49.844757 36.736147,49.855056 36.90625,49.78125 C 37.856111,49.43782 38.80343,49.016035 39.71875,48.59375 C 40.817392,48.071053 41.87415,47.548643 42.84375,46.8125 C 43.456501,46.361398 44.023604,45.870856 44.625,45.40625 C 45.051953,45.09359 45.550451,44.756974 46.09375,44.6875 C 46.492923,44.634704 46.852255,44.821732 47.125,45.09375 C 47.335468,45.305424 47.513022,45.533905 47.71875,45.75 C 48.041159,45.405999 48.378597,45.033354 48.5625,44.59375 C 48.854518,43.924802 48.911682,43.216329 48.96875,42.5 C 49.023874,41.78408 49.001564,41.04637 48.84375,40.34375 C 48.65178,39.460679 48.425788,38.586235 48,37.78125 C 47.848667,37.521921 47.683976,37.224566 47.375,37.125 C 47.152744,37.046516 47.0367,37.289881 46.9375,37.4375 C 46.438806,38.236235 45.599654,38.781847 44.8125,39.28125 C 44.075237,39.763662 43.367834,40.339469 42.90625,41.09375 C 42.684396,41.462011 42.531476,41.855806 42.5,42.28125 C 42.468719,42.442743 42.616935,42.646288 42.8125,42.5625 C 43.03936,42.477428 43.274694,42.365883 43.53125,42.40625 C 43.815902,42.453224 43.936039,42.71199 43.96875,42.96875 C 43.994486,43.307932 43.710892,43.607267 43.46875,43.8125 C 42.906951,44.263726 42.287653,44.58973 41.65625,44.9375 C 40.156582,45.732978 38.60514,46.399621 36.96875,46.875 C 36.244146,47.074175 35.757338,47.276599 35,47.28125 C 34.523731,47.267846 34.075079,47.16266 33.6875,46.875 C 33.550586,46.775731 32.98932,46.605552 33,46.4375 C 33,33.311565 33,30.623819 33,26 L 40.53125,26 C 40.792317,26 41,25.792318 41,25.53125 L 41,24.46875 C 41,24.207683 40.792318,24 40.53125,24 L 33,24 C 33,23.788337 33,23.345423 33,23.125 C 34.615768,22.525749 36.250551,21.029846 36.25,19.21875 C 36.250707,16.88812 34.350406,15 32,15 z M 31.90625,17.0625 C 33.047225,17.062501 34.000345,17.962376 34,19.09375 C 34.000342,20.225124 33.047225,21.15625 31.90625,21.15625 C 30.765272,21.156249 29.843407,20.225127 29.84375,19.09375 C 29.843406,17.962375 30.765272,17.0625 31.90625,17.0625 z"
       id="path3504"
       style="fill:#6a77c1;fill-opacity:1;fill-rule:nonzero;stroke:none;stroke-width:10;stroke-miterlimit:4;stroke-dasharray:none;stroke-opacity:1" />
    <path
       d="M 32,16 C 29.649586,16 27.749293,17.888119 27.75,20.21875 C 27.749451,22.029847 29.38423,23.525749 31,24.125 C 31.002012,24.416642 30.998153,24.70836 31,25 L 23.46875,25 C 23.207683,25 23,25.207682 23,25.46875 L 23,26.53125 C 23,26.792317 23.207682,27 23.46875,27 L 31,27 C 31.034499,33.81187 31.042513,40.625459 31,47.4375 C 31.010681,47.605553 30.449414,47.775731 30.3125,47.875 C 29.924921,48.16266 29.476269,48.267845 29,48.28125 C 28.24266,48.2766 27.755852,48.074175 27.03125,47.875 C 25.39486,47.399621 23.843416,46.732978 22.34375,45.9375 C 21.712347,45.58973 21.093046,45.263725 20.53125,44.8125 C 20.289106,44.607268 20.005515,44.307931 20.03125,43.96875 C 20.063959,43.711991 20.184098,43.453224 20.46875,43.40625 C 20.725304,43.365883 20.96064,43.477428 21.1875,43.5625 C 21.383066,43.646288 21.531282,43.442744 21.5,43.28125 C 21.468525,42.855805 21.315606,42.462012 21.09375,42.09375 C 20.632167,41.339468 19.924762,40.763663 19.1875,40.28125 C 18.400345,39.781846 17.561192,39.236236 17.0625,38.4375 C 16.9633,38.28988 16.847257,38.046515 16.625,38.125 C 16.316026,38.224567 16.151332,38.52192 16,38.78125 C 15.574211,39.586236 15.348221,40.460678 15.15625,41.34375 C 14.998436,42.046371 14.976126,42.78408 15.03125,43.5 C 15.088318,44.216329 15.145482,44.924802 15.4375,45.59375 C 15.621403,46.033354 15.958842,46.406 16.28125,46.75 C 16.486979,46.533904 16.664533,46.305423 16.875,46.09375 C 17.147745,45.821733 17.507074,45.634704 17.90625,45.6875 C 18.449549,45.756974 18.948045,46.093591 19.375,46.40625 C 19.976395,46.870855 20.543498,47.361398 21.15625,47.8125 C 22.125849,48.548643 23.182609,49.071053 24.28125,49.59375 C 25.196571,50.016035 26.14389,50.43782 27.09375,50.78125 C 27.263855,50.855056 27.451817,50.844756 27.625,50.90625 C 29.334529,51.61258 30.785436,52.432932 31.96875,53.90625 C 31.970395,53.926472 31.967001,53.980734 31.96875,54 C 31.982324,53.982535 31.986347,53.986028 32,53.96875 C 32.013653,53.986027 32.017675,53.982535 32.03125,54 C 32.040132,53.95931 32.022525,53.915859 32.03125,53.875 C 33.210858,52.41877 34.675841,51.608295 36.375,50.90625 C 36.548184,50.844757 36.736147,50.855056 36.90625,50.78125 C 37.856111,50.43782 38.80343,50.016035 39.71875,49.59375 C 40.817392,49.071053 41.87415,48.548643 42.84375,47.8125 C 43.456501,47.361398 44.023604,46.870856 44.625,46.40625 C 45.051953,46.09359 45.550451,45.756974 46.09375,45.6875 C 46.492923,45.634704 46.852255,45.821732 47.125,46.09375 C 47.335468,46.305424 47.513022,46.533905 47.71875,46.75 C 48.041159,46.405999 48.378597,46.033354 48.5625,45.59375 C 48.854518,44.924802 48.911682,44.216329 48.96875,43.5 C 49.023874,42.78408 49.001564,42.04637 48.84375,41.34375 C 48.65178,40.460679 48.425788,39.586235 48,38.78125 C 47.848667,38.521921 47.683976,38.224566 47.375,38.125 C 47.152744,38.046516 47.0367,38.289881 46.9375,38.4375 C 46.438806,39.236235 45.599654,39.781847 44.8125,40.28125 C 44.075237,40.763662 43.367834,41.339469 42.90625,42.09375 C 42.684396,42.462011 42.531476,42.855806 42.5,43.28125 C 42.468719,43.442743 42.616935,43.646288 42.8125,43.5625 C 43.03936,43.477428 43.274694,43.365883 43.53125,43.40625 C 43.815902,43.453224 43.936039,43.71199 43.96875,43.96875 C 43.994486,44.307932 43.710892,44.607267 43.46875,44.8125 C 42.906951,45.263726 42.287653,45.58973 41.65625,45.9375 C 40.156582,46.732978 38.60514,47.399621 36.96875,47.875 C 36.244146,48.074175 35.757338,48.276599 35,48.28125 C 34.523731,48.267846 34.075079,48.16266 33.6875,47.875 C 33.550586,47.775731 32.98932,47.605552 33,47.4375 C 33,34.311565 33,31.623819 33,27 L 40.53125,27 C 40.792317,27 41,26.792318 41,26.53125 L 41,25.46875 C 41,25.207683 40.792318,25 40.53125,25 L 33,25 C 33,24.788337 33,24.345423 33,24.125 C 34.615768,23.525749 36.250551,22.029846 36.25,20.21875 C 36.250707,17.88812 34.350406,16 32,16 z M 31.90625,18.0625 C 33.047225,18.062501 34.000345,18.962376 34,20.09375 C 34.000342,21.225124 33.047225,22.15625 31.90625,22.15625 C 30.765272,22.156249 29.843407,21.225127 29.84375,20.09375 C 29.843406,18.962375 30.765272,18.0625 31.90625,18.0625 z"
       id="path1919"
       style="fill:url(#linearGradient3501);fill-opacity:1;fill-rule:nonzero;stroke:none;stroke-width:10;stroke-miterlimit:4;stroke-dasharray:none;stroke-opacity:1" />
  </g>
</svg>
